<svg width="152" height="140" viewBox="0 0 152 140" fill="none" xmlns="http://www.w3.org/2000/svg">
<rect x="0.649902" y="12.2018" width="140" height="128" rx="13" transform="rotate(-5 0.649902 12.2018)" fill="#6D0077" fill-opacity="0.15"/>
<rect x="6.49976" y="7.2289" width="139" height="127" rx="12.5" fill="white" stroke="#ADADAD"/>
<path d="M92.8571 73.3956H77.1429V88.8123C77.1429 89.63 76.8117 90.4143 76.2223 90.9925C75.6329 91.5708 74.8335 91.8956 74 91.8956C73.1665 91.8956 72.3671 91.5708 71.7777 90.9925C71.1883 90.4143 70.8571 89.63 70.8571 88.8123V73.3956H55.1429C54.3093 73.3956 53.5099 73.0708 52.9205 72.4925C52.3311 71.9143 52 71.13 52 70.3123C52 69.4945 52.3311 68.7103 52.9205 68.132C53.5099 67.5538 54.3093 67.2289 55.1429 67.2289H70.8571V51.8123C70.8571 50.9945 71.1883 50.2103 71.7777 49.632C72.3671 49.0538 73.1665 48.7289 74 48.7289C74.8335 48.7289 75.6329 49.0538 76.2223 49.632C76.8117 50.2103 77.1429 50.9945 77.1429 51.8123V67.2289H92.8571C93.6907 67.2289 94.4901 67.5538 95.0795 68.132C95.6689 68.7103 96 69.4945 96 70.3123C96 71.13 95.6689 71.9143 95.0795 72.4925C94.4901 73.0708 93.6907 73.3956 92.8571 73.3956Z" fill="#6D0077" fill-opacity="0.17"/>
</svg>
