<svg width="16" height="16" viewBox="0 0 16 16" fill="none" xmlns="http://www.w3.org/2000/svg">
<path d="M15 1L9.6 6.4M15 1H10M15 1V6M1 10C1 11.3261 1.52678 12.5979 2.46447 13.5355C3.40215 14.4732 4.67392 15 6 15C7.32608 15 8.59785 14.4732 9.53553 13.5355C10.4732 12.5979 11 11.3261 11 10C11 8.67392 10.4732 7.40215 9.53553 6.46447C8.59785 5.52678 7.32608 5 6 5C4.67392 5 3.40215 5.52678 2.46447 6.46447C1.52678 7.40215 1 8.67392 1 10Z" stroke="#01A8E9" stroke-width="2" stroke-linecap="round" stroke-linejoin="round"/>
</svg>
