<svg width="32" height="32" viewBox="0 0 32 32" fill="none" xmlns="http://www.w3.org/2000/svg">
<path d="M5.19995 23.4C5.19995 22.0208 5.74781 20.6982 6.723 19.723C7.69818 18.7478 9.02083 18.2 10.4 18.2H20.8C22.1791 18.2 23.5017 18.7478 24.4769 19.723C25.4521 20.6982 26 22.0208 26 23.4C26 24.0895 25.726 24.7508 25.2384 25.2384C24.7508 25.726 24.0895 26 23.4 26H7.79995C7.11039 26 6.44907 25.726 5.96147 25.2384C5.47388 24.7508 5.19995 24.0895 5.19995 23.4Z" stroke="#6D0077" stroke-width="1.3" stroke-linejoin="round"/>
<path d="M15.6 13C17.7539 13 19.5 11.2539 19.5 9.09995C19.5 6.94604 17.7539 5.19995 15.6 5.19995C13.446 5.19995 11.7 6.94604 11.7 9.09995C11.7 11.2539 13.446 13 15.6 13Z" stroke="#6D0077" stroke-width="1.3"/>
</svg>
