<svg width="247" height="247" viewBox="0 0 247 247" fill="none" xmlns="http://www.w3.org/2000/svg">
<g clip-path="url(#clip0_16_438)">
<path d="M247 123.5C247.043 152.653 236.731 180.873 217.903 203.13C217.219 203.942 216.522 204.741 215.813 205.536C207.465 214.924 197.741 222.992 186.972 229.462C184.502 230.945 181.978 232.342 179.4 233.654C179.139 233.787 178.874 233.919 178.613 234.047C178.301 234.206 177.985 234.359 177.669 234.513C171.145 237.707 164.349 240.312 157.362 242.299C156.636 242.504 155.908 242.704 155.178 242.898C145.987 245.329 136.546 246.69 127.043 246.953C126.547 246.966 126.06 246.974 125.59 246.983C125.423 246.987 125.261 246.991 125.098 246.991C124.564 246.996 124.034 247 123.5 247C113.485 247.007 103.506 245.798 93.783 243.398C92.8087 243.158 91.8387 242.906 90.8729 242.641C85.7857 241.252 80.7939 239.535 75.9289 237.5C73.3649 236.432 70.8465 235.28 68.3737 234.043C67.8139 233.761 67.254 233.479 66.7028 233.189C66.4677 233.073 66.237 232.949 66.0062 232.83C52.8265 225.873 41.0072 216.6 31.1143 205.454C30.4305 204.69 29.7596 203.912 29.0972 203.13C18.1971 190.206 10.0662 175.182 5.20836 158.988C0.350477 142.794 -1.13103 125.776 0.855597 108.986C2.84223 92.1965 8.25469 75.9935 16.7578 61.3807C25.2608 46.7679 36.6735 34.0563 50.2888 24.0334C50.9896 23.5163 51.6948 23.0035 52.4084 22.5035C52.5494 22.4052 52.6904 22.3069 52.8315 22.2086C65.3709 13.4252 79.4452 7.06928 94.3257 3.46997C95.1719 3.26058 96.018 3.06401 96.8727 2.88026C112.991 -0.645395 129.648 -0.937353 145.88 2.02131C146.73 2.17942 147.58 2.34181 148.426 2.51702C163.174 5.54192 177.239 11.2536 189.921 19.3669C190.203 19.5463 190.485 19.7258 190.767 19.9139C191.335 20.2814 191.904 20.6574 192.463 21.0377C209.262 32.3315 223.024 47.5854 232.535 65.4542C242.046 83.3231 247.013 103.258 247 123.5Z" fill="#F2F2F2"/>
<path d="M92.3046 187.391L52.8316 190.895L52.4085 190.934V22.5035C52.5495 22.4052 52.6905 22.3069 52.8316 22.2086C61.0581 16.4544 69.9571 11.7272 79.3307 8.13219L81.3477 35.9517L81.5314 38.4987L83.5271 66.0875L84.1424 74.5743L92.2319 186.408L92.3046 187.391Z" fill="#CCCCCC"/>
<path d="M189.921 19.3668C190.203 19.5463 190.485 19.7258 190.767 19.9138V190.934L189.921 190.857L150.875 187.391L150.948 186.408L159.037 74.5743L159.653 66.0875L161.648 38.4987L161.832 35.9517L163.947 6.77754C173.069 9.93955 181.787 14.1651 189.921 19.3668Z" fill="#CCCCCC"/>
<path d="M189.921 19.3669V193.267C189.921 196.604 187.622 199.318 184.793 199.318H57.9596C55.6178 199.318 53.6306 197.455 53.0281 194.912C52.8966 194.374 52.8306 193.821 52.8315 193.267V22.2086C52.6905 22.3069 52.5495 22.4052 52.4085 22.5035C51.6948 23.0035 50.9897 23.5163 50.2889 24.0334V193.267C50.251 195.802 51.1977 198.253 52.9298 200.104C53.8381 201.056 54.9869 201.744 56.2545 202.096C56.8102 202.247 57.3836 202.323 57.9596 202.322H184.793C185.37 202.323 185.945 202.246 186.502 202.096C189.912 201.177 192.463 197.57 192.463 193.267V21.0377C191.904 20.6574 191.335 20.2814 190.767 19.9138C190.485 19.7258 190.203 19.5463 189.921 19.3669Z" fill="#CCCCCC"/>
<path d="M191.193 35.9535H51.5603V38.5H191.193V35.9535Z" fill="#CCCCCC"/>
<path d="M94.3258 3.46996C95.1719 3.26056 96.018 3.06399 96.8727 2.88024V72.0274H94.3258V3.46996Z" fill="#CCCCCC"/>
<path d="M145.88 2.02129C146.73 2.1794 147.58 2.34179 148.427 2.517V72.0274H145.88V2.02129Z" fill="#CCCCCC"/>
<path d="M207.108 186.408H39.8875C36.8478 186.408 33.9327 187.616 31.7833 189.765C29.6339 191.914 28.4264 194.83 28.4264 197.869C28.4264 200.909 29.6339 203.824 31.7833 205.974C33.9327 208.123 36.8478 209.33 39.8875 209.33H207.108C208.736 209.331 210.345 208.984 211.828 208.312C213.31 207.641 214.633 206.661 215.706 205.437C216.192 204.884 216.624 204.286 216.997 203.651C217.285 203.164 217.535 202.656 217.745 202.13C218.443 200.391 218.704 198.508 218.504 196.645C218.305 194.781 217.652 192.996 216.602 191.444C215.552 189.892 214.138 188.621 212.482 187.743C210.827 186.865 208.982 186.407 207.108 186.408Z" fill="#CCCCCC"/>
<path d="M191.193 66.087H52.4091V74.5753H191.193V66.087Z" fill="#CCCCCC"/>
<path d="M120.528 63.5405H123.074C123.687 63.5405 124.295 63.6612 124.861 63.8959C125.427 64.1305 125.942 64.4744 126.376 64.9079C126.809 65.3414 127.153 65.8561 127.388 66.4225C127.622 66.9889 127.743 67.596 127.743 68.2091H115.859C115.859 66.9709 116.351 65.7834 117.227 64.9079C118.102 64.0324 119.29 63.5405 120.528 63.5405Z" fill="#CCCCCC"/>
<path d="M217.903 203.13C214.19 207.528 210.175 211.662 205.886 215.501H41.114C36.825 211.662 32.8097 207.528 29.0973 203.13H217.903Z" fill="#3F3D56"/>
<path d="M137.294 160.281H109.552C109.402 160.279 109.254 160.302 109.112 160.349C108.81 160.442 108.547 160.629 108.36 160.883C108.173 161.137 108.073 161.444 108.073 161.759V205.587H138.777V161.759C138.777 161.565 138.739 161.372 138.664 161.193C138.589 161.013 138.48 160.85 138.342 160.713C138.205 160.575 138.041 160.467 137.861 160.392C137.681 160.318 137.489 160.28 137.294 160.281ZM126.795 181.904C126.796 182.615 126.561 183.306 126.128 183.87C125.715 184.417 125.14 184.82 124.485 185.023C123.83 185.226 123.128 185.219 122.478 185.002C121.827 184.785 121.262 184.369 120.86 183.813C120.458 183.257 120.241 182.59 120.239 181.904V176.819C120.247 175.955 120.596 175.129 121.21 174.521C121.824 173.912 122.653 173.571 123.517 173.571C124.381 173.571 125.21 173.912 125.824 174.521C126.438 175.129 126.787 175.955 126.795 176.819V181.904Z" fill="#2F2E41"/>
<path d="M107.979 204.185V208.412C107.979 208.631 108.066 208.841 108.22 208.996C108.375 209.152 108.585 209.24 108.804 209.241H138.046C138.265 209.239 138.475 209.151 138.629 208.996C138.784 208.84 138.871 208.631 138.871 208.412V204.185H107.979Z" fill="#3F3D56"/>
<path d="M183.233 91.8857H64.6474C63.6285 91.887 62.6516 92.292 61.9307 93.0121C61.2099 93.7322 60.8038 94.7086 60.8013 95.7275V175.75C60.8021 176.77 61.2076 177.748 61.9287 178.469C62.6498 179.19 63.6276 179.596 64.6474 179.596H183.233C184.253 179.596 185.231 179.19 185.952 178.469C186.673 177.748 187.078 176.77 187.079 175.75V95.7275C187.077 94.7086 186.67 93.7322 185.95 93.0121C185.229 92.292 184.252 91.887 183.233 91.8857Z" fill="#3F3D56"/>
<path d="M182.242 94.6634H65.6345C65.089 94.6646 64.5662 94.8821 64.1809 95.2682C63.7955 95.6544 63.5791 96.1776 63.579 96.7231V174.763C63.5799 175.308 63.7968 175.83 64.1821 176.216C64.5674 176.601 65.0896 176.818 65.6345 176.819H182.242C182.786 176.818 183.309 176.601 183.694 176.216C184.079 175.83 184.296 175.308 184.297 174.763V96.7231C184.297 96.1776 184.081 95.6544 183.695 95.2682C183.31 94.8821 182.787 94.6646 182.242 94.6634Z" fill="#6D0077"/>
<path d="M160.781 209.172L159.704 204.057C159.659 203.848 159.563 203.654 159.424 203.492C159.285 203.33 159.108 203.206 158.909 203.13C158.765 203.073 158.611 203.044 158.456 203.044H91.2318C91.0768 203.044 90.9231 203.073 90.7788 203.13C90.5795 203.206 90.4024 203.33 90.2636 203.492C90.1247 203.654 90.0286 203.848 89.984 204.057L88.9071 209.172C88.8682 209.358 88.8712 209.55 88.9158 209.734C88.9604 209.919 89.0456 210.091 89.1651 210.238C89.2846 210.386 89.4355 210.504 89.6067 210.586C89.7779 210.668 89.9652 210.71 90.1549 210.711H159.529C159.719 210.712 159.907 210.669 160.079 210.587C160.25 210.505 160.401 210.385 160.52 210.236C160.64 210.089 160.725 209.918 160.77 209.734C160.816 209.55 160.819 209.358 160.781 209.172Z" fill="#2F2E41"/>
<path d="M93.6527 203.965H91.9333C91.818 203.965 91.7246 204.059 91.7246 204.174V205.039C91.7246 205.154 91.818 205.248 91.9333 205.248H93.6527C93.7679 205.248 93.8613 205.154 93.8613 205.039V204.174C93.8613 204.059 93.7679 203.965 93.6527 203.965Z" fill="#3F3D56"/>
<path d="M97.926 203.965H96.2066C96.0914 203.965 95.998 204.059 95.998 204.174V205.039C95.998 205.154 96.0914 205.248 96.2066 205.248H97.926C98.0413 205.248 98.1347 205.154 98.1347 205.039V204.174C98.1347 204.059 98.0413 203.965 97.926 203.965Z" fill="#3F3D56"/>
<path d="M102.199 203.965H100.48C100.365 203.965 100.271 204.059 100.271 204.174V205.039C100.271 205.154 100.365 205.248 100.48 205.248H102.199C102.315 205.248 102.408 205.154 102.408 205.039V204.174C102.408 204.059 102.315 203.965 102.199 203.965Z" fill="#3F3D56"/>
<path d="M106.473 203.965H104.753C104.638 203.965 104.545 204.059 104.545 204.174V205.039C104.545 205.154 104.638 205.248 104.753 205.248H106.473C106.588 205.248 106.681 205.154 106.681 205.039V204.174C106.681 204.059 106.588 203.965 106.473 203.965Z" fill="#3F3D56"/>
<path d="M110.746 203.965H109.027C108.911 203.965 108.818 204.059 108.818 204.174V205.039C108.818 205.154 108.911 205.248 109.027 205.248H110.746C110.861 205.248 110.955 205.154 110.955 205.039V204.174C110.955 204.059 110.861 203.965 110.746 203.965Z" fill="#3F3D56"/>
<path d="M115.019 203.965H113.3C113.185 203.965 113.091 204.059 113.091 204.174V205.039C113.091 205.154 113.185 205.248 113.3 205.248H115.019C115.135 205.248 115.228 205.154 115.228 205.039V204.174C115.228 204.059 115.135 203.965 115.019 203.965Z" fill="#3F3D56"/>
<path d="M119.293 203.965H117.573C117.458 203.965 117.365 204.059 117.365 204.174V205.039C117.365 205.154 117.458 205.248 117.573 205.248H119.293C119.408 205.248 119.501 205.154 119.501 205.039V204.174C119.501 204.059 119.408 203.965 119.293 203.965Z" fill="#3F3D56"/>
<path d="M123.566 203.965H121.847C121.732 203.965 121.638 204.059 121.638 204.174V205.039C121.638 205.154 121.732 205.248 121.847 205.248H123.566C123.681 205.248 123.775 205.154 123.775 205.039V204.174C123.775 204.059 123.681 203.965 123.566 203.965Z" fill="#3F3D56"/>
<path d="M127.84 203.965H126.12C126.005 203.965 125.911 204.059 125.911 204.174V205.039C125.911 205.154 126.005 205.248 126.12 205.248H127.84C127.955 205.248 128.048 205.154 128.048 205.039V204.174C128.048 204.059 127.955 203.965 127.84 203.965Z" fill="#3F3D56"/>
<path d="M132.113 203.965H130.393C130.278 203.965 130.185 204.059 130.185 204.174V205.039C130.185 205.154 130.278 205.248 130.393 205.248H132.113C132.228 205.248 132.322 205.154 132.322 205.039V204.174C132.322 204.059 132.228 203.965 132.113 203.965Z" fill="#3F3D56"/>
<path d="M136.386 203.965H134.667C134.552 203.965 134.458 204.059 134.458 204.174V205.039C134.458 205.154 134.552 205.248 134.667 205.248H136.386C136.501 205.248 136.595 205.154 136.595 205.039V204.174C136.595 204.059 136.501 203.965 136.386 203.965Z" fill="#3F3D56"/>
<path d="M140.66 203.965H138.94C138.825 203.965 138.732 204.059 138.732 204.174V205.039C138.732 205.154 138.825 205.248 138.94 205.248H140.66C140.775 205.248 140.868 205.154 140.868 205.039V204.174C140.868 204.059 140.775 203.965 140.66 203.965Z" fill="#3F3D56"/>
<path d="M144.933 203.965H143.214C143.098 203.965 143.005 204.059 143.005 204.174V205.039C143.005 205.154 143.098 205.248 143.214 205.248H144.933C145.048 205.248 145.142 205.154 145.142 205.039V204.174C145.142 204.059 145.048 203.965 144.933 203.965Z" fill="#3F3D56"/>
<path d="M149.206 203.965H147.487C147.372 203.965 147.278 204.059 147.278 204.174V205.039C147.278 205.154 147.372 205.248 147.487 205.248H149.206C149.322 205.248 149.415 205.154 149.415 205.039V204.174C149.415 204.059 149.322 203.965 149.206 203.965Z" fill="#3F3D56"/>
<path d="M153.48 203.965H151.76C151.645 203.965 151.552 204.059 151.552 204.174V205.039C151.552 205.154 151.645 205.248 151.76 205.248H153.48C153.595 205.248 153.688 205.154 153.688 205.039V204.174C153.688 204.059 153.595 203.965 153.48 203.965Z" fill="#3F3D56"/>
<path d="M157.753 203.965H156.034C155.918 203.965 155.825 204.059 155.825 204.174V205.039C155.825 205.154 155.918 205.248 156.034 205.248H157.753C157.868 205.248 157.962 205.154 157.962 205.039V204.174C157.962 204.059 157.868 203.965 157.753 203.965Z" fill="#3F3D56"/>
<path d="M93.6022 206.102H91.8828C91.7675 206.102 91.6741 206.196 91.6741 206.311V207.176C91.6741 207.291 91.7675 207.384 91.8828 207.384H93.6022C93.7174 207.384 93.8108 207.291 93.8108 207.176V206.311C93.8108 206.196 93.7174 206.102 93.6022 206.102Z" fill="#3F3D56"/>
<path d="M97.8756 206.102H96.1561C96.0409 206.102 95.9475 206.196 95.9475 206.311V207.176C95.9475 207.291 96.0409 207.384 96.1561 207.384H97.8756C97.9908 207.384 98.0842 207.291 98.0842 207.176V206.311C98.0842 206.196 97.9908 206.102 97.8756 206.102Z" fill="#3F3D56"/>
<path d="M102.149 206.102H100.429C100.314 206.102 100.221 206.196 100.221 206.311V207.176C100.221 207.291 100.314 207.384 100.429 207.384H102.149C102.264 207.384 102.358 207.291 102.358 207.176V206.311C102.358 206.196 102.264 206.102 102.149 206.102Z" fill="#3F3D56"/>
<path d="M106.422 206.102H104.703C104.588 206.102 104.494 206.196 104.494 206.311V207.176C104.494 207.291 104.588 207.384 104.703 207.384H106.422C106.537 207.384 106.631 207.291 106.631 207.176V206.311C106.631 206.196 106.537 206.102 106.422 206.102Z" fill="#3F3D56"/>
<path d="M110.696 206.102H108.976C108.861 206.102 108.768 206.196 108.768 206.311V207.176C108.768 207.291 108.861 207.384 108.976 207.384H110.696C110.811 207.384 110.904 207.291 110.904 207.176V206.311C110.904 206.196 110.811 206.102 110.696 206.102Z" fill="#3F3D56"/>
<path d="M114.969 206.102H113.25C113.134 206.102 113.041 206.196 113.041 206.311V207.176C113.041 207.291 113.134 207.384 113.25 207.384H114.969C115.084 207.384 115.178 207.291 115.178 207.176V206.311C115.178 206.196 115.084 206.102 114.969 206.102Z" fill="#3F3D56"/>
<path d="M119.242 206.102H117.523C117.408 206.102 117.314 206.196 117.314 206.311V207.176C117.314 207.291 117.408 207.384 117.523 207.384H119.242C119.358 207.384 119.451 207.291 119.451 207.176V206.311C119.451 206.196 119.358 206.102 119.242 206.102Z" fill="#3F3D56"/>
<path d="M123.516 206.102H121.796C121.681 206.102 121.588 206.196 121.588 206.311V207.176C121.588 207.291 121.681 207.384 121.796 207.384H123.516C123.631 207.384 123.724 207.291 123.724 207.176V206.311C123.724 206.196 123.631 206.102 123.516 206.102Z" fill="#3F3D56"/>
<path d="M127.789 206.102H126.07C125.954 206.102 125.861 206.196 125.861 206.311V207.176C125.861 207.291 125.954 207.384 126.07 207.384H127.789C127.904 207.384 127.998 207.291 127.998 207.176V206.311C127.998 206.196 127.904 206.102 127.789 206.102Z" fill="#3F3D56"/>
<path d="M132.062 206.102H130.343C130.228 206.102 130.134 206.196 130.134 206.311V207.176C130.134 207.291 130.228 207.384 130.343 207.384H132.062C132.178 207.384 132.271 207.291 132.271 207.176V206.311C132.271 206.196 132.178 206.102 132.062 206.102Z" fill="#3F3D56"/>
<path d="M136.336 206.102H134.616C134.501 206.102 134.408 206.196 134.408 206.311V207.176C134.408 207.291 134.501 207.384 134.616 207.384H136.336C136.451 207.384 136.544 207.291 136.544 207.176V206.311C136.544 206.196 136.451 206.102 136.336 206.102Z" fill="#3F3D56"/>
<path d="M140.609 206.102H138.89C138.774 206.102 138.681 206.196 138.681 206.311V207.176C138.681 207.291 138.774 207.384 138.89 207.384H140.609C140.724 207.384 140.818 207.291 140.818 207.176V206.311C140.818 206.196 140.724 206.102 140.609 206.102Z" fill="#3F3D56"/>
<path d="M144.882 206.102H143.163C143.048 206.102 142.954 206.196 142.954 206.311V207.176C142.954 207.291 143.048 207.384 143.163 207.384H144.882C144.998 207.384 145.091 207.291 145.091 207.176V206.311C145.091 206.196 144.998 206.102 144.882 206.102Z" fill="#3F3D56"/>
<path d="M149.156 206.102H147.436C147.321 206.102 147.228 206.196 147.228 206.311V207.176C147.228 207.291 147.321 207.384 147.436 207.384H149.156C149.271 207.384 149.364 207.291 149.364 207.176V206.311C149.364 206.196 149.271 206.102 149.156 206.102Z" fill="#3F3D56"/>
<path d="M153.429 206.102H151.71C151.595 206.102 151.501 206.196 151.501 206.311V207.176C151.501 207.291 151.595 207.384 151.71 207.384H153.429C153.544 207.384 153.638 207.291 153.638 207.176V206.311C153.638 206.196 153.544 206.102 153.429 206.102Z" fill="#3F3D56"/>
<path d="M157.703 206.102H155.983C155.868 206.102 155.774 206.196 155.774 206.311V207.176C155.774 207.291 155.868 207.384 155.983 207.384H157.703C157.818 207.384 157.911 207.291 157.911 207.176V206.311C157.911 206.196 157.818 206.102 157.703 206.102Z" fill="#3F3D56"/>
<path d="M129.071 208.666H112.395C112.28 208.666 112.186 208.76 112.186 208.875V209.74C112.186 209.855 112.28 209.948 112.395 209.948H129.071C129.186 209.948 129.28 209.855 129.28 209.74V208.875C129.28 208.76 129.186 208.666 129.071 208.666Z" fill="#3F3D56"/>
<path d="M176.382 105.414H67.2732C67.1598 105.411 67.0518 105.364 66.9725 105.283C66.8931 105.202 66.8487 105.093 66.8487 104.98C66.8487 104.866 66.8931 104.757 66.9725 104.676C67.0518 104.595 67.1598 104.548 67.2732 104.546H176.382C176.495 104.548 176.603 104.595 176.683 104.676C176.762 104.757 176.806 104.866 176.806 104.98C176.806 105.093 176.762 105.202 176.683 105.283C176.603 105.364 176.495 105.411 176.382 105.414Z" fill="#3F3D56"/>
<path d="M74.7004 102.331C76.1047 102.331 77.2432 101.167 77.2432 99.7311C77.2432 98.2954 76.1047 97.1316 74.7004 97.1316C73.296 97.1316 72.1575 98.2954 72.1575 99.7311C72.1575 101.167 73.296 102.331 74.7004 102.331Z" fill="#3F3D56"/>
<path d="M83.4848 102.331C84.8891 102.331 86.0276 101.167 86.0276 99.7311C86.0276 98.2954 84.8891 97.1316 83.4848 97.1316C82.0804 97.1316 80.9419 98.2954 80.9419 99.7311C80.9419 101.167 82.0804 102.331 83.4848 102.331Z" fill="#3F3D56"/>
<path d="M92.269 102.331C93.6734 102.331 94.8119 101.167 94.8119 99.7311C94.8119 98.2954 93.6734 97.1316 92.269 97.1316C90.8647 97.1316 89.7262 98.2954 89.7262 99.7311C89.7262 101.167 90.8647 102.331 92.269 102.331Z" fill="#3F3D56"/>
<path d="M171.092 97.7744H164.853C164.73 97.7773 164.613 97.8283 164.526 97.9165C164.44 98.0048 164.392 98.1232 164.392 98.2466C164.392 98.37 164.44 98.4884 164.526 98.5767C164.613 98.6649 164.73 98.7159 164.853 98.7188H171.092C171.216 98.7171 171.335 98.6665 171.422 98.5782C171.509 98.4898 171.558 98.3707 171.558 98.2466C171.558 98.1225 171.509 98.0034 171.422 97.915C171.335 97.8267 171.216 97.7761 171.092 97.7744Z" fill="#3F3D56"/>
<path d="M171.092 99.5478H164.853C164.73 99.5506 164.612 99.6015 164.526 99.6898C164.44 99.778 164.391 99.8966 164.391 100.02C164.391 100.144 164.44 100.262 164.526 100.35C164.612 100.439 164.73 100.49 164.853 100.492H171.092C171.217 100.491 171.335 100.44 171.423 100.352C171.51 100.264 171.559 100.144 171.559 100.02C171.559 99.8958 171.51 99.7765 171.423 99.6881C171.335 99.5997 171.217 99.5493 171.092 99.5478Z" fill="#3F3D56"/>
<path d="M171.092 101.321H164.853C164.73 101.324 164.613 101.375 164.526 101.463C164.44 101.552 164.392 101.67 164.392 101.793C164.392 101.917 164.44 102.035 164.526 102.124C164.613 102.212 164.73 102.263 164.853 102.266H171.092C171.216 102.264 171.335 102.213 171.422 102.125C171.509 102.037 171.558 101.918 171.558 101.793C171.558 101.669 171.509 101.55 171.422 101.462C171.335 101.374 171.216 101.323 171.092 101.321Z" fill="#3F3D56"/>
<path d="M76.6813 115.497H74.4394C73.7597 115.497 73.2087 116.048 73.2087 116.728C73.2087 117.408 73.7597 117.959 74.4394 117.959H76.6813C77.361 117.959 77.912 117.408 77.912 116.728C77.912 116.048 77.361 115.497 76.6813 115.497Z" fill="#E6E6E6"/>
<path d="M102.321 115.497H100.08C99.3998 115.497 98.8488 116.048 98.8488 116.728C98.8488 117.408 99.3998 117.959 100.08 117.959H102.321C103.001 117.959 103.552 117.408 103.552 116.728C103.552 116.048 103.001 115.497 102.321 115.497Z" fill="#E6E6E6"/>
<path d="M109.586 115.497H107.344C106.665 115.497 106.114 116.048 106.114 116.728C106.114 117.408 106.665 117.959 107.344 117.959H109.586C110.266 117.959 110.817 117.408 110.817 116.728C110.817 116.048 110.266 115.497 109.586 115.497Z" fill="#E6E6E6"/>
<path d="M95.3471 115.292H81.4135C80.7338 115.292 80.1828 115.843 80.1828 116.523C80.1828 117.203 80.7338 117.754 81.4135 117.754H95.3471C96.0268 117.754 96.5779 117.203 96.5779 116.523C96.5779 115.843 96.0268 115.292 95.3471 115.292Z" fill="#E6E6E6"/>
<path d="M129.534 115.292H115.6C114.921 115.292 114.37 115.843 114.37 116.523C114.37 117.203 114.921 117.754 115.6 117.754H129.534C130.214 117.754 130.765 117.203 130.765 116.523C130.765 115.843 130.214 115.292 129.534 115.292Z" fill="#E6E6E6"/>
<path d="M83.5186 121.053H81.2767C80.597 121.053 80.046 121.604 80.046 122.283C80.046 122.963 80.597 123.514 81.2767 123.514H83.5186C84.1983 123.514 84.7493 122.963 84.7493 122.283C84.7493 121.604 84.1983 121.053 83.5186 121.053Z" fill="#E6E6E6"/>
<path d="M109.159 121.053H106.917C106.237 121.053 105.686 121.604 105.686 122.283C105.686 122.963 106.237 123.514 106.917 123.514H109.159C109.838 123.514 110.389 122.963 110.389 122.283C110.389 121.604 109.838 121.053 109.159 121.053Z" fill="#E6E6E6"/>
<path d="M116.423 121.053H114.182C113.502 121.053 112.951 121.604 112.951 122.283C112.951 122.963 113.502 123.514 114.182 123.514H116.423C117.103 123.514 117.654 122.963 117.654 122.283C117.654 121.604 117.103 121.053 116.423 121.053Z" fill="#E6E6E6"/>
<path d="M102.184 120.848H88.2509C87.5712 120.848 87.0202 121.399 87.0202 122.078C87.0202 122.758 87.5712 123.309 88.2509 123.309H102.184C102.864 123.309 103.415 122.758 103.415 122.078C103.415 121.399 102.864 120.848 102.184 120.848Z" fill="#E6E6E6"/>
<path d="M136.371 120.848H122.438C121.758 120.848 121.207 121.399 121.207 122.078C121.207 122.758 121.758 123.309 122.438 123.309H136.371C137.051 123.309 137.602 122.758 137.602 122.078C137.602 121.399 137.051 120.848 136.371 120.848Z" fill="#E6E6E6"/>
<path d="M90.356 126.608H88.1141C87.4344 126.608 86.8834 127.159 86.8834 127.839C86.8834 128.519 87.4344 129.07 88.1141 129.07H90.356C91.0357 129.07 91.5867 128.519 91.5867 127.839C91.5867 127.159 91.0357 126.608 90.356 126.608Z" fill="#E6E6E6"/>
<path d="M115.996 126.608H113.754C113.075 126.608 112.524 127.159 112.524 127.839C112.524 128.519 113.075 129.07 113.754 129.07H115.996C116.676 129.07 117.227 128.519 117.227 127.839C117.227 127.159 116.676 126.608 115.996 126.608Z" fill="#E6E6E6"/>
<path d="M123.261 126.608H121.019C120.339 126.608 119.788 127.159 119.788 127.839C119.788 128.519 120.339 129.07 121.019 129.07H123.261C123.941 129.07 124.492 128.519 124.492 127.839C124.492 127.159 123.941 126.608 123.261 126.608Z" fill="#E6E6E6"/>
<path d="M109.022 126.403H95.0883C94.4086 126.403 93.8575 126.954 93.8575 127.634C93.8575 128.313 94.4086 128.864 95.0883 128.864H109.022C109.702 128.864 110.253 128.313 110.253 127.634C110.253 126.954 109.702 126.403 109.022 126.403Z" fill="#E6E6E6"/>
<path d="M143.209 126.403H129.275C128.595 126.403 128.044 126.954 128.044 127.634C128.044 128.313 128.595 128.864 129.275 128.864H143.209C143.888 128.864 144.439 128.313 144.439 127.634C144.439 126.954 143.888 126.403 143.209 126.403Z" fill="#E6E6E6"/>
<path d="M97.1934 132.163H94.9515C94.2718 132.163 93.7208 132.714 93.7208 133.394C93.7208 134.074 94.2718 134.625 94.9515 134.625H97.1934C97.8731 134.625 98.4241 134.074 98.4241 133.394C98.4241 132.714 97.8731 132.163 97.1934 132.163Z" fill="#E6E6E6"/>
<path d="M122.834 132.163H120.592C119.912 132.163 119.361 132.714 119.361 133.394C119.361 134.074 119.912 134.625 120.592 134.625H122.834C123.513 134.625 124.064 134.074 124.064 133.394C124.064 132.714 123.513 132.163 122.834 132.163Z" fill="#E6E6E6"/>
<path d="M130.098 132.163H127.856C127.177 132.163 126.626 132.714 126.626 133.394C126.626 134.074 127.177 134.625 127.856 134.625H130.098C130.778 134.625 131.329 134.074 131.329 133.394C131.329 132.714 130.778 132.163 130.098 132.163Z" fill="#E6E6E6"/>
<path d="M115.859 131.958H101.926C101.246 131.958 100.695 132.509 100.695 133.189C100.695 133.869 101.246 134.42 101.926 134.42H115.859C116.539 134.42 117.09 133.869 117.09 133.189C117.09 132.509 116.539 131.958 115.859 131.958Z" fill="#E6E6E6"/>
<path d="M102.321 154.254H100.08C99.3998 154.254 98.8488 154.805 98.8488 155.485C98.8488 156.164 99.3998 156.715 100.08 156.715H102.321C103.001 156.715 103.552 156.164 103.552 155.485C103.552 154.805 103.001 154.254 102.321 154.254Z" fill="#E6E6E6"/>
<path d="M109.586 154.254H107.344C106.665 154.254 106.114 154.805 106.114 155.485C106.114 156.164 106.665 156.715 107.344 156.715H109.586C110.266 156.715 110.817 156.164 110.817 155.485C110.817 154.805 110.266 154.254 109.586 154.254Z" fill="#E6E6E6"/>
<path d="M129.534 154.459H115.6C114.921 154.459 114.37 155.01 114.37 155.69C114.37 156.37 114.921 156.921 115.6 156.921H129.534C130.214 156.921 130.765 156.37 130.765 155.69C130.765 155.01 130.214 154.459 129.534 154.459Z" fill="#E6E6E6"/>
<path d="M76.6813 154.254H74.4394C73.7597 154.254 73.2087 154.805 73.2087 155.485C73.2087 156.164 73.7597 156.715 74.4394 156.715H76.6813C77.361 156.715 77.912 156.164 77.912 155.485C77.912 154.805 77.361 154.254 76.6813 154.254Z" fill="#E6E6E6"/>
<path d="M95.3471 154.459H81.4135C80.7338 154.459 80.1828 155.01 80.1828 155.69C80.1828 156.37 80.7338 156.921 81.4135 156.921H95.3471C96.0268 156.921 96.5779 156.37 96.5779 155.69C96.5779 155.01 96.0268 154.459 95.3471 154.459Z" fill="#E6E6E6"/>
<path d="M83.5186 148.699H81.2767C80.597 148.699 80.046 149.25 80.046 149.929C80.046 150.609 80.597 151.16 81.2767 151.16H83.5186C84.1983 151.16 84.7493 150.609 84.7493 149.929C84.7493 149.25 84.1983 148.699 83.5186 148.699Z" fill="#E6E6E6"/>
<path d="M109.159 148.699H106.917C106.237 148.699 105.686 149.25 105.686 149.929C105.686 150.609 106.237 151.16 106.917 151.16H109.159C109.838 151.16 110.389 150.609 110.389 149.929C110.389 149.25 109.838 148.699 109.159 148.699Z" fill="#E6E6E6"/>
<path d="M116.423 148.699H114.182C113.502 148.699 112.951 149.25 112.951 149.929C112.951 150.609 113.502 151.16 114.182 151.16H116.423C117.103 151.16 117.654 150.609 117.654 149.929C117.654 149.25 117.103 148.699 116.423 148.699Z" fill="#E6E6E6"/>
<path d="M102.184 148.904H88.2509C87.5712 148.904 87.0202 149.455 87.0202 150.135C87.0202 150.814 87.5712 151.365 88.2509 151.365H102.184C102.864 151.365 103.415 150.814 103.415 150.135C103.415 149.455 102.864 148.904 102.184 148.904Z" fill="#E6E6E6"/>
<path d="M90.356 143.143H88.1141C87.4344 143.143 86.8834 143.694 86.8834 144.374C86.8834 145.054 87.4344 145.605 88.1141 145.605H90.356C91.0357 145.605 91.5867 145.054 91.5867 144.374C91.5867 143.694 91.0357 143.143 90.356 143.143Z" fill="#E6E6E6"/>
<path d="M115.996 143.143H113.754C113.075 143.143 112.524 143.694 112.524 144.374C112.524 145.054 113.075 145.605 113.754 145.605H115.996C116.676 145.605 117.227 145.054 117.227 144.374C117.227 143.694 116.676 143.143 115.996 143.143Z" fill="#E6E6E6"/>
<path d="M123.261 143.143H121.019C120.339 143.143 119.788 143.694 119.788 144.374C119.788 145.054 120.339 145.605 121.019 145.605H123.261C123.941 145.605 124.492 145.054 124.492 144.374C124.492 143.694 123.941 143.143 123.261 143.143Z" fill="#E6E6E6"/>
<path d="M109.022 143.348H95.0883C94.4086 143.348 93.8575 143.899 93.8575 144.579C93.8575 145.259 94.4086 145.81 95.0883 145.81H109.022C109.702 145.81 110.253 145.259 110.253 144.579C110.253 143.899 109.702 143.348 109.022 143.348Z" fill="#E6E6E6"/>
<path d="M97.1934 137.588H94.9515C94.2718 137.588 93.7208 138.139 93.7208 138.819C93.7208 139.498 94.2718 140.049 94.9515 140.049H97.1934C97.8731 140.049 98.4241 139.498 98.4241 138.819C98.4241 138.139 97.8731 137.588 97.1934 137.588Z" fill="#E6E6E6"/>
<path d="M122.834 137.588H120.592C119.912 137.588 119.361 138.139 119.361 138.819C119.361 139.498 119.912 140.049 120.592 140.049H122.834C123.513 140.049 124.064 139.498 124.064 138.819C124.064 138.139 123.513 137.588 122.834 137.588Z" fill="#E6E6E6"/>
<path d="M130.098 137.588H127.856C127.177 137.588 126.626 138.139 126.626 138.819C126.626 139.498 127.177 140.049 127.856 140.049H130.098C130.778 140.049 131.329 139.498 131.329 138.819C131.329 138.139 130.778 137.588 130.098 137.588Z" fill="#E6E6E6"/>
<path d="M115.859 137.793H101.926C101.246 137.793 100.695 138.344 100.695 139.024C100.695 139.703 101.246 140.254 101.926 140.254H115.859C116.539 140.254 117.09 139.703 117.09 139.024C117.09 138.344 116.539 137.793 115.859 137.793Z" fill="#E6E6E6"/>
<path d="M177.69 234.509C177.43 234.641 177.165 234.774 176.904 234.902C170.152 238.278 164.751 240.197 157.362 242.299C156.738 235.334 156.136 223.091 155.55 215.501C155.396 213.531 155.242 211.877 155.093 210.711C155.055 210.09 154.929 209.479 154.717 208.894L154.743 210.711L154.807 215.501L155.178 242.898C145.987 245.329 136.546 246.69 127.043 246.953C126.547 246.966 126.06 246.974 125.59 246.983C125.423 246.987 125.261 246.991 125.098 246.991C124.564 246.996 124.034 247 123.5 247C113.485 247.007 103.506 245.798 93.7831 243.398C93.9925 236.505 94.2019 224.398 94.4027 215.501C94.4454 213.762 94.4839 212.142 94.5266 210.711C94.6078 207.651 94.6933 205.446 94.7745 204.707C94.7025 204.838 94.6466 204.977 94.6078 205.121C94.2121 206.964 93.9422 208.831 93.8002 210.711C93.6506 212.142 93.501 213.762 93.3515 215.501C92.5566 224.744 91.7276 237.312 90.8729 242.641C85.7857 241.252 80.794 239.535 75.929 237.5C73.365 236.432 70.8466 235.28 68.3737 234.043C68.8438 230.966 69.3352 227.518 69.8395 223.941C70.2326 221.168 70.6386 218.317 71.0531 215.501C71.6941 211.151 72.3522 206.886 73.0188 203.13C73.9932 197.643 74.9931 193.233 75.9845 191.207C76.9247 189.284 77.8648 187.387 78.7751 185.57C79.0913 184.934 79.4075 184.306 79.7152 183.694C79.7878 183.549 79.8605 183.408 79.9331 183.267C80.587 181.981 81.2194 180.75 81.822 179.596C82.339 178.609 82.8305 177.678 83.2963 176.819C84.4244 174.733 85.3817 173.071 86.091 172.02C89.0568 167.521 93.4719 164.172 98.6034 162.529L98.7316 162.494L98.8214 162.533L107.56 159.849L108.838 159.456L109.697 159.191L112.723 156.888L114.368 155.636L115.911 154.46L118.928 152.166L137.606 153.315L141.243 162.071L149.388 165.05L149.529 164.986L149.653 164.934L149.781 164.969C154.912 166.614 159.327 169.962 162.294 174.46C162.695 175.062 163.182 175.857 163.734 176.819C164.204 177.635 164.717 178.566 165.272 179.596C166.063 181.062 166.926 182.716 167.84 184.506C168.041 184.9 168.246 185.301 168.451 185.707C168.832 186.459 169.218 187.227 169.61 188.011C170.52 189.827 171.46 191.724 172.4 193.651C173.216 195.322 174.041 198.758 174.853 203.13C175.524 206.762 176.19 211.044 176.836 215.501C177.682 221.279 176.78 228.197 177.545 233.513C177.592 233.851 177.643 234.18 177.69 234.509Z" fill="#3F3D56"/>
<path d="M123.763 145.176C135.761 145.176 145.487 135.45 145.487 123.452C145.487 111.454 135.761 101.728 123.763 101.728C111.765 101.728 102.039 111.454 102.039 123.452C102.039 135.45 111.765 145.176 123.763 145.176Z" fill="#A0616A"/>
<path d="M159.589 94.6634C159.159 93.6609 158.588 92.7255 157.892 91.8857C154.593 87.8559 148.593 86.0825 142.435 90.8516C141.25 90.5867 140.014 90.6577 138.867 91.0567C138.325 91.2528 137.818 91.5325 137.363 91.8857C136.43 92.6131 135.703 93.5702 135.252 94.6634C135.011 95.2407 134.852 95.8493 134.782 96.471C133.259 95.6801 131.648 95.0733 129.983 94.6634C125.896 93.6468 121.622 93.6468 117.534 94.6634C116.225 94.9947 114.963 95.4946 113.782 96.1505C111.782 97.3043 110.633 98.7615 110.428 100.381C107.543 100.544 104.543 102.061 102.308 104.548C102.056 104.825 101.813 105.116 101.586 105.415C99.7067 107.874 98.6967 110.888 98.7146 113.983V114.526H99.2573C100.744 114.524 102.217 114.812 103.595 115.372C104.487 115.731 105.333 116.197 106.112 116.761C106.621 117.123 107.103 117.523 107.552 117.957C108.593 118.965 109.475 120.125 110.167 121.398C111.943 124.613 112.558 128.341 111.911 131.957C111.762 132.794 111.545 133.617 111.261 134.418C110.857 135.562 110.326 136.655 109.676 137.679C109.65 137.717 109.629 137.756 109.603 137.794C109.317 138.252 109.043 138.717 108.787 139.187C108.595 139.538 108.415 139.897 108.248 140.256C107.761 141.255 107.35 142.289 107.018 143.35C106.423 145.226 106.072 147.17 105.975 149.136C105.945 149.657 105.937 150.179 105.954 150.7C105.979 152.044 106.126 153.383 106.394 154.7C106.432 154.879 106.471 155.054 106.509 155.234L106.821 156.597L107.56 159.849L108.073 162.088L108.548 164.165L109.248 163.161C109.488 162.819 110.09 161.768 110.898 160.281C111.432 159.311 112.052 158.153 112.723 156.888C113.658 155.114 114.684 153.136 115.688 151.161C116.094 150.362 116.496 149.567 116.885 148.79C117.62 147.315 118.312 145.892 118.906 144.628C119.453 143.461 119.919 142.427 120.265 141.598C120.372 142.14 120.462 142.692 120.53 143.247C120.607 143.811 120.663 144.384 120.692 144.957C120.701 145.042 120.705 145.132 120.71 145.217L120.727 145.568L120.731 145.67L121.184 145.73C123.796 146.01 126.43 146.03 129.047 145.79H129.051C132.517 145.529 135.918 144.705 139.119 143.35C140.937 142.561 142.635 141.519 144.162 140.256C144.875 139.665 145.541 139.019 146.153 138.324C146.307 138.149 146.456 137.974 146.602 137.794C147.447 136.755 148.172 135.622 148.76 134.418C149.154 133.624 149.488 132.801 149.76 131.957C151.401 126.987 151.307 120.786 149.478 113.419C149.972 113.324 150.445 113.142 150.875 112.881C152.217 112.073 153.149 110.471 153.439 108.513L153.901 108.637C155.537 107.875 156.994 106.777 158.178 105.415C158.413 105.138 158.632 104.848 158.836 104.548C160.926 101.471 160.943 97.7787 159.589 94.6634Z" fill="#2F2E41"/>
<path opacity="0.2" d="M88.1679 203.111L91.799 189.098L95.0053 201.19L88.1679 203.111Z" fill="black"/>
<path d="M184.793 193.98C183.494 211.877 184.84 219.757 177.669 234.513C171.145 237.707 164.349 240.312 157.362 242.299C156.636 242.504 155.908 242.704 155.178 242.898C145.987 245.329 136.546 246.69 127.043 246.953C126.547 246.966 126.06 246.974 125.59 246.983C125.423 246.987 125.261 246.991 125.098 246.991C124.564 246.996 124.034 247 123.5 247C113.485 247.007 103.506 245.798 93.783 243.398C92.8087 243.158 91.8387 242.906 90.8729 242.641C85.7857 241.252 80.7939 239.535 75.9289 237.5C73.3649 236.432 70.8465 235.28 68.3737 234.043C67.8138 233.761 67.254 233.479 66.7028 233.188C63.8695 228.206 62.2585 222.146 62.2243 214.864C64.1858 202.318 180.46 183.16 184.793 193.98Z" fill="#2F2E41"/>
<path opacity="0.2" d="M184.789 197.045C184.856 195.937 184.93 194.793 185.016 193.601C180.683 182.781 64.4094 201.938 62.448 214.485C62.4534 215.635 62.5026 216.752 62.5853 217.842C67.3354 205.458 177.797 187.25 184.789 197.045Z" fill="black"/>
<path d="M69.6965 146.214C69.7248 145.826 69.6698 145.437 69.5352 145.073C69.4006 144.708 69.1894 144.377 68.916 144.101C68.6426 143.825 68.3132 143.611 67.9501 143.473C67.587 143.335 67.1985 143.276 66.8108 143.301C66.6664 143.306 66.5226 143.324 66.3813 143.355L49.3895 147.193C49.0099 147.285 48.6537 147.456 48.3439 147.694C48.0341 147.932 47.7777 148.233 47.591 148.576C47.3418 148.585 47.0944 148.621 46.8528 148.683C46.3241 148.803 45.8241 149.026 45.3814 149.339C44.9388 149.652 44.5621 150.049 44.273 150.508C43.9838 150.966 43.7879 151.478 43.6962 152.012C43.6046 152.546 43.6191 153.093 43.739 153.622C43.8588 154.151 44.0817 154.651 44.3948 155.094C44.7078 155.536 45.105 155.913 45.5637 156.202C46.4899 156.786 47.6103 156.978 48.6781 156.736C49.286 156.595 49.8546 156.32 50.3424 155.931L56.1003 172.144C56.388 172.652 56.8323 173.054 57.3669 173.288C57.9016 173.523 58.4978 173.578 59.0665 173.446L70.1125 170.95C70.6769 170.817 71.1848 170.51 71.5634 170.071C71.942 169.632 72.1717 169.085 72.2197 168.507L69.6965 146.214ZM48.4231 155.582C47.6605 155.754 46.8607 155.617 46.1992 155.2C45.5377 154.783 45.0684 154.121 44.8943 153.359C44.7202 152.597 44.8554 151.796 45.2704 151.134C45.6853 150.471 46.3461 150 47.1078 149.824C47.1615 149.811 47.2152 149.824 47.2689 149.811C47.2648 150.3 47.3899 150.781 47.6313 151.206L49.7384 154.884C49.3716 155.232 48.9169 155.473 48.4231 155.582Z" fill="#2F2E41"/>
<path d="M66.8109 143.301C66.9719 145.449 63.2944 147.918 58.3687 148.898C53.8455 149.824 49.7923 149.18 48.6514 147.489C48.8807 147.353 49.1297 147.253 49.3896 147.193L66.3814 143.355C66.5227 143.324 66.6664 143.306 66.8109 143.301Z" fill="#3F3D56"/>
<path d="M55.0593 197.816L64.6033 193.044L56.65 171.57L54.5539 160.74C54.2816 159.333 53.6448 158.023 52.7071 156.939C51.7695 155.855 50.5638 155.036 49.2107 154.565C47.8575 154.093 46.4042 153.984 44.996 154.25C43.5878 154.516 42.274 155.147 41.1859 156.079C39.5735 157.461 38.5611 159.416 38.3624 161.53C38.1637 163.644 38.7941 165.753 40.1208 167.412L47.9014 177.137L55.0593 197.816Z" fill="#A0616A"/>
<path d="M64.6034 189.067L51.8781 195.43L61.5352 225.689C62.2287 227.862 63.4719 229.819 65.1442 231.37C66.8165 232.921 68.8612 234.014 71.0801 234.542C73.816 235.193 76.6883 234.957 79.2806 233.866C81.8728 232.775 84.0503 230.887 85.4973 228.475L111.105 184.582C112.92 181.557 113.48 177.943 112.666 174.511C111.852 171.079 109.728 168.101 106.748 166.214C105.146 165.199 103.347 164.533 101.47 164.259C99.5929 163.985 97.6791 164.109 95.8532 164.624C94.0273 165.138 92.3302 166.032 90.8723 167.245C89.4144 168.459 88.2285 169.967 87.3917 171.669L71.7615 204.974L64.6034 189.067Z" fill="#3F3D56"/>
<path d="M60.6674 161.721C60.6438 161.722 60.6203 161.718 60.598 161.71L57.8196 160.753C57.7861 160.742 57.7559 160.722 57.7319 160.696C57.7078 160.67 57.6907 160.638 57.6819 160.604C57.6732 160.57 57.6732 160.534 57.6819 160.499C57.6906 160.465 57.7078 160.433 57.7318 160.407L59.7982 158.157C59.8171 158.136 59.8399 158.12 59.8654 158.108C59.8908 158.096 59.9184 158.089 59.9465 158.088C59.9746 158.086 60.0027 158.091 60.0291 158.1C60.0555 158.11 60.0798 158.125 60.1005 158.144C60.1213 158.163 60.138 158.185 60.1498 158.211C60.1617 158.236 60.1684 158.264 60.1695 158.292C60.1707 158.32 60.1662 158.348 60.1565 158.375C60.1468 158.401 60.1319 158.425 60.1128 158.446L58.2672 160.455L60.7369 161.306C60.7847 161.322 60.8252 161.355 60.851 161.399C60.8769 161.442 60.8865 161.493 60.8782 161.543C60.8698 161.593 60.8441 161.638 60.8055 161.671C60.7669 161.704 60.718 161.722 60.6674 161.721Z" fill="#6D0077"/>
<path d="M64.4758 160.942C64.4332 160.942 64.3916 160.929 64.3563 160.905C64.321 160.882 64.2936 160.848 64.2777 160.808C64.2617 160.769 64.2579 160.726 64.2667 160.684C64.2755 160.642 64.2966 160.604 64.3272 160.575L66.2051 158.759L63.6824 157.719C63.6565 157.709 63.6328 157.693 63.6129 157.673C63.593 157.654 63.5772 157.63 63.5664 157.604C63.5556 157.578 63.55 157.55 63.5499 157.522C63.5498 157.494 63.5553 157.466 63.566 157.44C63.5767 157.415 63.5924 157.391 63.6122 157.371C63.6321 157.351 63.6556 157.335 63.6816 157.325C63.7075 157.314 63.7353 157.308 63.7634 157.308C63.7915 157.308 63.8193 157.314 63.8452 157.325L66.6696 158.489C66.7024 158.502 66.7314 158.523 66.7538 158.551C66.7762 158.578 66.7915 158.611 66.7981 158.646C66.8048 158.681 66.8027 158.717 66.792 158.75C66.7813 158.784 66.7623 158.815 66.7368 158.839L64.6243 160.882C64.5845 160.92 64.5312 160.942 64.4758 160.942Z" fill="#6D0077"/>
<path d="M61.2507 163.029C61.2294 163.029 61.2082 163.025 61.1878 163.019C61.161 163.011 61.1361 162.997 61.1144 162.979C61.0928 162.962 61.0749 162.94 61.0617 162.915C61.0486 162.89 61.0405 162.863 61.0378 162.835C61.0352 162.807 61.0381 162.779 61.0464 162.752L63.0184 156.342C63.0353 156.288 63.0729 156.243 63.1229 156.216C63.173 156.19 63.2314 156.185 63.2855 156.201C63.3395 156.218 63.3848 156.255 63.4113 156.305C63.4378 156.355 63.4435 156.414 63.427 156.468L61.4549 162.878C61.4414 162.922 61.4143 162.96 61.3776 162.987C61.3408 163.014 61.2963 163.029 61.2507 163.029Z" fill="#6D0077"/>
</g>
<defs>
<clipPath id="clip0_16_438">
<rect width="247" height="247" fill="white"/>
</clipPath>
</defs>
</svg>
