<svg width="312" height="159" viewBox="0 0 312 159" fill="none" xmlns="http://www.w3.org/2000/svg">
<g clip-path="url(#clip0_16_378)">
<path d="M297.258 87.904L296.283 95.6632L293.865 114.935H245.281C245.661 110.616 246.179 104.399 246.733 97.6868C246.788 97.0164 246.845 96.3419 246.9 95.6632C248.289 78.7916 249.81 59.6994 249.81 59.6994L256.197 60.8893L268.589 63.1936L273.639 64.1321L287.161 66.65C293.903 67.9027 298.541 77.6646 297.258 87.904Z" fill="#F2F2F2"/>
<path d="M260.509 28.4784L266.483 38.9334L255 47.0714L250.102 34.2202L260.509 28.4784Z" fill="#FFB6B6"/>
<path d="M252.903 38.3693C261.077 38.3693 267.703 31.7427 267.703 23.5684C267.703 15.3941 261.077 8.76749 252.903 8.76749C244.728 8.76749 238.102 15.3941 238.102 23.5684C238.102 31.7427 244.728 38.3693 252.903 38.3693Z" fill="#FFB6B6"/>
<path d="M251.84 26.8773C250.665 25.0886 251.126 24.1531 250.142 23.4958C250.142 23.4958 249.746 23.2313 246.912 23.0805C246.278 18.5143 245.486 17.9606 245.486 17.9606C244.573 17.3224 243.219 17.5298 242.376 17.9201C240.594 18.7456 240.8 20.5288 239.6 20.8701C237.943 21.3415 234.926 18.684 234.629 15.6418C234.387 13.1603 235.986 10.75 236.62 10.8775C237.249 11.004 238.754 9.08215 239.567 9.11179C240.122 9.13204 242.39 8.14627 243 8.22334C243.666 8.30752 245.863 9.45396 245.955 9.19204C246.591 7.37189 246.404 6.86687 246.944 6.34616C247.9 5.42347 249.465 6.06601 251.92 6.41096C256.97 7.1207 257.852 5.45533 260.44 6.58413C261.748 7.15435 262.842 8.69216 264.977 11.7445C267.962 16.0131 269.455 18.1475 269.465 20.6369C269.474 23.1756 268.245 23.0144 267.705 26.7728C267.104 30.9565 268.381 32.8695 266.986 34.2287C265.907 35.2792 263.715 35.5286 262.564 34.6066C260.592 33.0282 263.172 29.2193 260.991 26.4365C259.651 24.7284 256.958 23.9683 255.724 24.8127C254.329 25.7674 255.097 28.5697 254.116 28.8354C253.276 29.063 252.045 27.189 251.84 26.8773Z" fill="#2F2E41"/>
<path d="M286.318 85.1714C285.905 92.2302 284.265 94.4587 283.691 102.795C283.565 104.625 283.49 106.75 283.49 109.283C283.49 109.929 283.494 110.554 283.494 111.164C283.494 112.463 283.469 113.69 283.318 114.935C283.203 115.929 283.006 116.931 282.679 117.986H250.801C250.798 117.979 250.798 117.971 250.794 117.964C250.608 117.153 250.489 116.378 250.399 115.635C250.371 115.398 250.345 115.165 250.324 114.935C250.295 114.666 250.27 114.401 250.245 114.139C250.148 113.094 250.051 112.108 249.822 111.164C249.513 109.861 248.953 108.634 247.805 107.45C247.335 106.965 246.865 106.588 246.405 106.258C246.316 106.197 246.229 106.136 246.14 106.075C244.869 105.203 243.667 104.575 242.626 102.795C242.609 102.77 242.594 102.741 242.58 102.716C242.4 102.404 241.934 101.586 241.596 100.495C241.241 99.3608 241.026 97.936 241.414 96.4792C242.336 93.0269 245.752 92.6824 248.544 89.1942C248.846 88.8175 249.143 88.4011 249.427 87.9382C250.69 85.8854 251.031 84.0769 251.433 81.9273C251.497 81.5791 251.555 81.2346 251.602 80.901C251.638 80.6497 251.67 80.4021 251.695 80.158C251.917 78.1089 251.81 76.3434 251.548 74.7644C250.694 69.5931 248.174 66.3921 249.954 61.752C250.514 60.2952 251.307 59.2005 252.108 58.2639C253.801 56.2793 255.542 54.9911 255.241 52.4289C254.935 49.8451 252.976 49.4897 252.757 47.2324C252.646 46.0914 253.019 44.8892 253.719 43.7085V43.705C255.958 39.9045 261.549 36.4056 265.102 36.5169C265.759 36.5349 266.34 36.6819 266.824 36.9655C268.579 37.9989 267.847 40.2562 270.535 43.4215C272.534 45.7719 274.795 46.7122 275.653 47.1571C279.051 48.93 281.814 54.1586 283.691 60.8441C283.705 60.8944 283.72 60.9445 283.734 60.9985C284.893 65.1864 285.712 69.9413 286.117 74.7644C286.289 76.8063 286.39 78.8591 286.411 80.8901C286.429 82.5122 286.393 83.919 286.318 85.1714Z" fill="#6D0077"/>
<path d="M262.447 109.355L261.797 111.164L261.388 112.298L260.44 114.935L259.342 117.986H252.283L253.468 114.935L254.017 113.514L254.928 111.164L256.457 107.216L262.447 109.355Z" fill="#FFB6B6"/>
<path d="M283.802 60.2268C283.784 60.4602 283.759 60.7185 283.734 60.9985C283.454 63.8478 282.794 68.9473 281.829 74.7644C281.319 77.8326 280.723 81.1019 280.052 84.3496C278.61 91.3581 276.815 98.2591 274.788 102.795C274.425 103.613 274.052 104.353 273.671 105.006C273.381 105.505 273.076 105.996 272.756 106.481C271.723 108.07 270.564 109.578 269.362 110.984C269.315 111.045 269.261 111.103 269.207 111.164C269.014 111.393 268.812 111.62 268.612 111.846C267.628 112.954 266.624 113.988 265.651 114.935C264.467 116.091 263.325 117.114 262.303 117.986H250.841L250.794 117.964L249.143 117.232C249.143 117.232 249.613 116.679 250.399 115.635C250.561 115.423 250.733 115.19 250.92 114.935C251.149 114.623 251.397 114.279 251.662 113.905C252.215 113.123 252.843 112.204 253.518 111.164C254.824 109.15 256.313 106.674 257.817 103.807C257.99 103.473 258.165 103.136 258.341 102.795C258.345 102.784 258.352 102.773 258.355 102.763C258.653 102.181 258.948 101.582 259.242 100.972C261.736 95.7829 262.45 91.4765 262.655 90.0807C262.942 88.1069 263.34 85.3471 263.232 82.3112C263.16 80.3089 262.87 78.1915 262.177 76.0886V76.0851C262.034 75.6437 261.872 75.2023 261.689 74.7644C261.363 73.9785 260.975 73.2033 260.516 72.439C258.488 69.0729 256.841 68.9329 255.531 65.2652C255.144 64.178 254.264 61.7234 254.533 59.1324V59.1288C254.566 58.8094 254.62 58.4865 254.691 58.1634V58.1599C254.709 58.0701 254.735 57.9769 254.76 57.8872C254.964 57.0941 255.302 56.3081 255.815 55.5616C256.816 54.112 258.183 53.2506 259.407 52.7375L259.411 52.7338C260.824 52.1454 262.045 52.0198 262.281 51.9982C267.524 51.5318 271.59 55.9385 273.812 58.3465C274.669 59.2759 275.455 60.0547 276.173 60.6898C281.76 65.6781 283.293 62.4913 283.691 60.8441C283.752 60.5894 283.784 60.3705 283.802 60.2268Z" fill="#6D0077"/>
<path d="M283.82 60.0404C283.82 60.0583 283.817 60.1192 283.802 60.2198C283.809 60.1659 283.813 60.1121 283.817 60.0618C283.817 60.0511 283.817 60.0439 283.82 60.0404Z" fill="#6D0077"/>
<path d="M255.319 135.764H62.9517C61.1644 135.764 59.7076 137.217 59.7076 139.004C59.7076 140.795 61.1644 142.248 62.9517 142.248H255.319C257.106 142.248 258.56 140.795 258.56 139.004C258.56 137.217 257.106 135.764 255.319 135.764Z" fill="#E6E6E6"/>
<path d="M212.629 152.515H105.638C103.851 152.515 102.398 153.969 102.398 155.756C102.398 157.543 103.851 159 105.638 159H212.629C214.416 159 215.873 157.543 215.873 155.756C215.873 153.969 214.416 152.515 212.629 152.515Z" fill="#E6E6E6"/>
<path d="M84.3574 29.1664L96.4811 24.0642L101.681 34.7244L88.941 39.9244L84.3574 29.1664Z" fill="#FFB6B6"/>
<path opacity="0.1" d="M84.3574 29.1664L96.4811 24.0642L101.681 34.7244L88.941 39.9244L84.3574 29.1664Z" fill="black"/>
<path d="M86.0809 25.1042L98.0411 38.8844C98.0411 38.8844 89.721 65.1448 81.4008 67.4848C73.0807 69.8249 57.7405 81.265 57.7405 81.265L38.5002 68.7848L47.8604 55.0046C47.8604 55.0046 70.4807 24.0642 76.4608 24.0642C82.4409 24.0642 86.0809 25.1042 86.0809 25.1042Z" fill="#6D0077"/>
<path d="M69.9217 114.935H42.0805L40.3203 112.582L33.1338 102.975L31.4802 100.765C31.4802 100.765 25.2401 89.3251 26.5401 78.925C27.8401 68.5248 41.3603 66.1848 41.3603 66.1848H41.9167L58.4685 80.7294L57.4805 94.2652L62.7222 102.975L69.9217 114.935Z" fill="#2F2E41"/>
<path d="M47.7824 114.935H40.3203V103.885L47.7824 114.935Z" fill="#2F2E41"/>
<path d="M208.73 98.16L207.802 102.975L205.498 114.935H159.22C159.581 112.255 160.075 108.396 160.603 104.231C160.655 103.815 160.71 103.397 160.762 102.975C162.085 92.505 163.533 80.6566 163.533 80.6566L169.618 81.395L181.422 82.825L186.232 83.4074L199.112 84.9701C205.534 85.7475 209.952 91.8056 208.73 98.16Z" fill="#F2F2F2"/>
<path d="M274.222 114.935H249.121C249.504 114.486 249.719 114.226 249.719 114.226L257.244 112.983L272.748 110.424C272.748 110.424 273.455 112.252 274.222 114.935Z" fill="#2F2E41"/>
<path d="M167.752 34.3668L178.668 49.8043L159.627 50.373L157.583 35.8654L167.752 34.3668Z" fill="#A0616A"/>
<path opacity="0.1" d="M167.752 34.3668L178.668 49.8043L159.627 50.373L157.583 35.8654L167.752 34.3668Z" fill="black"/>
<path d="M113.919 66.3522C112.519 62.3118 109.298 59.7593 106.727 60.6511C104.156 61.5429 103.208 65.5408 104.609 69.5825C105.147 71.2047 106.066 72.6745 107.288 73.8689L113.439 90.9136L121.376 87.8568L114.469 71.3783C114.69 69.683 114.501 67.9596 113.919 66.3522Z" fill="#A0616A"/>
<path d="M187.809 58.4861L187.794 74.2189L186.331 80.03L183.32 91.9824L181.128 102.975L179.495 111.165L178.913 114.09C178.473 114.384 178.036 114.665 177.6 114.935H139.569C137.408 113.638 136.199 112.629 136.199 112.629C136.199 112.629 136.797 112.068 137.481 111.165C138.635 109.642 140.032 107.146 139.176 104.762C138.997 104.262 138.95 103.654 139.005 102.975C139.353 98.4981 144.049 90.9267 144.049 90.9267L143.076 79.6894L142.65 74.7649L145.656 50.7534L155.456 45.0568L157.148 44.8931L173.848 43.9909L180.75 44.3887L181.065 44.4745L187.809 58.4861Z" fill="#CCCCCC"/>
<path d="M188.551 114.935H180.231L179.864 111.165L179.856 111.09L182.212 110.929L188.34 110.51L188.447 112.767L188.53 114.499L188.551 114.935Z" fill="#FFB6B6"/>
<path d="M190.599 62.2899L194.094 82.7964L191.242 102.975L190.797 106.116L190.012 111.662L189.77 113.368L189.778 113.552L189.838 114.935H179.958L179.594 111.165L179.563 110.827L178.819 103.105L178.806 102.975L177.228 86.6003L180.322 74.7649L180.551 73.8939V73.8913L181.897 53.6266L180.854 44.4173L180.844 44.3315C180.865 44.3445 180.883 44.3575 180.904 44.3705C180.958 44.4043 181.013 44.4381 181.065 44.4745C187.139 48.3278 190.758 55.0879 190.599 62.2899Z" fill="#CCCCCC"/>
<path d="M149.196 54.6829L145.397 50.7532C145.397 50.7532 137.263 54.4199 136.858 56.4541C136.452 58.4884 122.092 88.3661 122.092 88.3661L115.844 71.6795L107.712 77.1092C107.712 77.1092 114.237 103.016 120.34 104.232C126.443 105.449 146.896 73.569 146.896 73.569L149.196 54.6829Z" fill="#CCCCCC"/>
<path d="M303.468 102.795H7.59357C3.40568 102.795 0 106.204 0 110.392C0 114.58 3.40568 117.986 7.59357 117.986H303.468C307.656 117.986 311.065 114.58 311.065 110.392C311.065 106.204 307.656 102.795 303.468 102.795Z" fill="#E6E6E6"/>
<path d="M186.078 79.6457L185.503 106.489C185.447 109.088 183.324 111.165 180.725 111.165H131.345C128.807 111.165 126.712 109.182 126.574 106.648L125.106 79.8041C124.956 77.0667 127.136 74.7649 129.877 74.7649H181.3C183.98 74.7649 186.135 76.9672 186.078 79.6457Z" fill="#3F3D56"/>
<path d="M106.361 35.6462C112.886 35.6462 118.176 30.3567 118.176 23.8318C118.176 17.3069 112.886 12.0175 106.361 12.0175C99.8363 12.0175 94.5468 17.3069 94.5468 23.8318C94.5468 30.3567 99.8363 35.6462 106.361 35.6462Z" fill="#FFB6B6"/>
<path d="M86.6009 54.7446L87.901 68.7848L96.7411 104.405L89.1038 107.082L76.2008 68.2648L74.4186 52.6646L86.6009 54.7446Z" fill="#FFB6B6"/>
<path d="M83.0844 79.6457L82.5092 106.489C82.4535 109.088 80.3311 111.165 77.7319 111.165H28.3516C25.8139 111.165 23.7189 109.182 23.5804 106.648L22.1129 79.8041C21.9632 77.0667 24.1426 74.7649 26.8841 74.7649H78.3071C80.9862 74.7649 83.1418 76.9672 83.0844 79.6457Z" fill="#3F3D56"/>
<path d="M98.1487 111.347C103.302 111.347 107.479 109.499 107.479 107.22C107.479 104.941 103.302 103.093 98.1487 103.093C92.9957 103.093 88.8183 104.941 88.8183 107.22C88.8183 109.499 92.9957 111.347 98.1487 111.347Z" fill="#FFB6B6"/>
<path d="M68.2707 56.8912L73.6007 28.4843C73.6007 28.4843 88.4209 26.4042 88.941 31.3443C89.461 36.2844 88.5694 60.4272 88.5694 60.4272L68.2707 56.8912Z" fill="#6D0077"/>
<path d="M101.592 25.6895C101.592 25.6895 108.9 23.0811 111.983 21.6777C115.066 20.2743 121.191 30.063 121.327 24.8933C121.463 19.7235 119.347 17.5556 119.347 17.5556C119.347 17.5556 118.818 6.24601 107.424 7.65997C107.424 7.65997 109.93 2.00168 101.704 1.12672C93.4769 0.251773 80.6782 20.118 81.8244 23.0869C82.9706 26.0558 84.3447 28.5104 81.0927 31.6848C77.8408 34.8592 71.7514 52.7748 76.3845 57.5957C81.0175 62.4167 81.3215 64.5087 78.1472 67.5079C74.9728 70.5072 67.4695 77.0287 75.5823 78.1608C83.6951 79.293 74.8401 78.4474 80.8883 73.1273C86.9365 67.8072 95.7622 68.0245 92.4668 59.4889C89.1714 50.9533 94.8967 38.7219 94.1803 36.8663C93.4639 35.0107 95.7854 23.2278 95.7854 23.2278C95.7854 23.2278 101.188 22.434 101.592 25.6895Z" fill="#2F2E41"/>
<path d="M161.915 39.9544C169.018 39.9544 174.776 34.1965 174.776 27.0936C174.776 19.9908 169.018 14.2328 161.915 14.2328C154.812 14.2328 149.054 19.9908 149.054 27.0936C149.054 34.1965 154.812 39.9544 161.915 39.9544Z" fill="#A0616A"/>
<path d="M162.942 9.80318C162.569 10.0204 162.071 9.69174 161.952 9.27769C161.832 8.86363 161.971 8.42402 162.109 8.01576L162.803 5.9605C163.295 4.50287 163.818 2.9943 164.883 1.88485C166.492 0.210312 169.049 -0.215682 171.35 0.0929357C174.306 0.489263 177.222 2.08966 178.596 4.73613C179.97 7.38259 179.385 11.0754 176.902 12.7265C180.441 16.7828 181.675 21.3035 181.48 26.6832C181.285 32.0629 175.423 37.0139 171.6 40.8037C170.746 40.2861 169.97 37.8607 170.439 36.9796C170.909 36.0984 170.236 35.0776 170.817 34.266C171.399 33.4544 171.885 34.7468 171.297 33.9398C170.927 33.4305 172.374 32.259 171.823 31.9542C169.156 30.4801 168.269 27.1559 166.594 24.6103C164.574 21.5398 161.116 19.4605 157.456 19.1155C155.441 18.9255 153.312 19.2696 151.659 20.4399C150.007 21.6102 148.937 23.7014 149.321 25.6896C148.328 24.6821 147.834 23.2055 148.021 21.8037C148.207 20.4019 149.069 19.1057 150.29 18.3923C149.548 15.9372 150.184 13.1131 151.907 11.2132C153.63 9.31335 160.62 9.63694 163.136 10.1369L162.942 9.80318Z" fill="#2F2E41"/>
<path d="M163.332 19.19C166.664 19.5497 169.07 22.436 171.102 25.1014C172.272 26.6377 173.499 28.3343 173.47 30.2657C173.44 32.2184 172.134 33.8933 171.51 35.7438C170.49 38.7687 171.484 42.3675 173.912 44.4401C171.513 44.8953 168.92 43.0966 168.506 40.6903C168.024 37.889 170.147 35.1853 169.896 32.354C169.674 29.8596 167.708 27.9398 166.037 26.0747C164.366 24.2096 162.797 21.7347 163.565 19.3514L163.332 19.19Z" fill="#2F2E41"/>
<path d="M213.145 104.421C209.845 106.298 208.138 109.522 209.333 111.622C210.528 113.723 214.172 113.903 217.473 112.025C218.802 111.292 219.936 110.253 220.781 108.992L234.664 100.862L230.71 94.4282L217.443 103.126C215.928 103.208 214.454 103.652 213.145 104.421Z" fill="#FFB6B6"/>
<path d="M260.151 44.8006C259.736 44.6362 256.096 43.2576 252.773 45.0777C248.955 47.1685 248.365 51.9415 248.158 53.6155C247.681 57.4826 249.088 58.3494 249.385 62.2643C249.941 69.5888 251.407 61.233 249.066 64.5763C248.256 65.7335 239.981 83.667 235.417 87.1797C226.541 94.0115 220.905 98.8227 220.905 98.8227L227.339 105.812C227.339 105.812 237.507 103.103 246.494 97.2678C255.713 91.282 260.322 88.2892 263.888 82.4342C264.195 81.9301 271.543 69.4521 267.597 55.6544C266.697 52.5072 265.047 46.7408 260.151 44.8006Z" fill="#6D0077"/>
<path d="M293.377 79.6457L292.802 106.489C292.747 109.088 290.624 111.165 288.025 111.165H238.645C236.107 111.165 234.012 109.182 233.873 106.648L232.406 79.8041C232.256 77.0667 234.436 74.7649 237.177 74.7649H288.6C291.279 74.7649 293.435 76.9672 293.377 79.6457Z" fill="#3F3D56"/>
</g>
<defs>
<clipPath id="clip0_16_378">
<rect width="311.065" height="159" fill="white"/>
</clipPath>
</defs>
</svg>
