<svg width="16" height="16" viewBox="0 0 16 16" fill="none" xmlns="http://www.w3.org/2000/svg">
<path d="M7.83995 0.980042C6.41095 0.981727 5.04097 1.55014 4.03051 2.5606C3.02005 3.57105 2.45164 4.94104 2.44995 6.37004C2.44864 7.53776 2.83005 8.67373 3.53579 9.60404C3.53579 9.60404 3.68279 9.79759 3.7068 9.82552L7.83995 14.7L11.9751 9.82307C11.9966 9.7971 12.1441 9.60404 12.1441 9.60404L12.1446 9.60257C12.8499 8.6726 13.2311 7.5372 13.23 6.37004C13.2283 4.94104 12.6599 3.57105 11.6494 2.5606C10.6389 1.55014 9.26895 0.981727 7.83995 0.980042ZM8.32995 8.82004H7.34995V7.84004H8.32995V8.82004ZM8.32995 6.86004H7.34995V5.88004H8.32995V6.86004ZM10.29 8.82004H9.30995V4.90004H6.36995V8.82004H5.38995V4.90004C5.38995 4.64013 5.4932 4.39086 5.67699 4.20708C5.86078 4.02329 6.11004 3.92004 6.36995 3.92004H9.30995C9.56987 3.92004 9.81913 4.02329 10.0029 4.20708C10.1867 4.39086 10.29 4.64013 10.29 4.90004V8.82004Z" fill="#ADADAD"/>
</svg>
