<svg width="25" height="25" viewBox="0 0 25 25" fill="none" xmlns="http://www.w3.org/2000/svg">
<g clip-path="url(#clip0_66_73)">
<path d="M22.3937 24.7104H2.31648C1.03463 24.7104 -0.00012207 23.6757 -0.00012207 22.3938V3.86103C-0.00012207 2.57918 1.03463 1.54443 2.31648 1.54443H22.3937C23.6755 1.54443 24.7103 2.57918 24.7103 3.86103V22.3938C24.7103 23.6757 23.6755 24.7104 22.3937 24.7104ZM2.31648 3.08883C1.88405 3.08883 1.54428 3.4286 1.54428 3.86103V22.3938C1.54428 22.8263 1.88405 23.166 2.31648 23.166H22.3937C22.8261 23.166 23.1659 22.8263 23.1659 22.3938V3.86103C23.1659 3.4286 22.8261 3.08883 22.3937 3.08883H2.31648Z" fill="#6D0077"/>
<path d="M6.9498 6.1776C6.51737 6.1776 6.1776 5.83783 6.1776 5.4054V0.7722C6.1776 0.339768 6.51737 0 6.9498 0C7.38223 0 7.722 0.339768 7.722 0.7722V5.4054C7.722 5.83783 7.38223 6.1776 6.9498 6.1776ZM17.7606 6.1776C17.3282 6.1776 16.9884 5.83783 16.9884 5.4054V0.7722C16.9884 0.339768 17.3282 0 17.7606 0C18.193 0 18.5328 0.339768 18.5328 0.7722V5.4054C18.5328 5.83783 18.193 6.1776 17.7606 6.1776ZM23.9382 9.2664H0.7722C0.339768 9.2664 0 8.92663 0 8.4942C0 8.06177 0.339768 7.722 0.7722 7.722H23.9382C24.3706 7.722 24.7104 8.06177 24.7104 8.4942C24.7104 8.92663 24.3706 9.2664 23.9382 9.2664Z" fill="#6D0077"/>
<circle cx="8.134" cy="17.134" r="1.134" fill="#6D0077"/>
<circle cx="12.134" cy="15.134" r="1.134" fill="#6D0077"/>
<circle cx="16.134" cy="13.134" r="1.134" fill="#6D0077"/>
</g>
<defs>
<clipPath id="clip0_66_73">
<rect width="24.7104" height="24.7104" fill="white"/>
</clipPath>
</defs>
</svg>
