<svg width="59" height="42" viewBox="0 0 59 42" fill="none" xmlns="http://www.w3.org/2000/svg">
<path d="M8.829 17.7043C12.0755 17.7043 14.715 15.0579 14.715 11.8029C14.715 8.54785 12.0755 5.90143 8.829 5.90143C5.5825 5.90143 2.943 8.54785 2.943 11.8029C2.943 15.0579 5.5825 17.7043 8.829 17.7043ZM50.031 17.7043C53.2775 17.7043 55.917 15.0579 55.917 11.8029C55.917 8.54785 53.2775 5.90143 50.031 5.90143C46.7845 5.90143 44.145 8.54785 44.145 11.8029C44.145 15.0579 46.7845 17.7043 50.031 17.7043ZM52.974 20.655H47.088C45.4694 20.655 44.007 21.3097 42.9402 22.3701C46.6465 24.4079 49.2769 28.0871 49.8471 32.4579H55.917C57.5448 32.4579 58.86 31.1393 58.86 29.5071V26.5564C58.86 23.3014 56.2205 20.655 52.974 20.655ZM29.43 20.655C35.1229 20.655 39.7305 16.0353 39.7305 10.3275C39.7305 4.61971 35.1229 0 29.43 0C23.7371 0 19.1295 4.61971 19.1295 10.3275C19.1295 16.0353 23.7371 20.655 29.43 20.655ZM36.4932 23.6057H35.7299C33.8169 24.5278 31.6924 25.0811 29.43 25.0811C27.1676 25.0811 25.0523 24.5278 23.1301 23.6057H22.3668C16.5176 23.6057 11.772 28.3637 11.772 34.2283V36.8839C11.772 39.3275 13.7493 41.31 16.1865 41.31H42.6735C45.1107 41.31 47.088 39.3275 47.088 36.8839V34.2283C47.088 28.3637 42.3424 23.6057 36.4932 23.6057ZM15.9198 22.3701C14.853 21.3097 13.3907 20.655 11.772 20.655H5.886C2.6395 20.655 0 23.3014 0 26.5564V29.5071C0 31.1393 1.31515 32.4579 2.943 32.4579H9.00374C9.58314 28.0871 12.2135 24.4079 15.9198 22.3701Z" fill="white"/>
</svg>
