<svg width="24" height="24" viewBox="0 0 24 24" fill="none" xmlns="http://www.w3.org/2000/svg">
<path d="M15 16L11 20H19C20.1 20 21 19.1 21 18C21 16.9 20.1 16 19 16H15ZM12.06 7.19L3.29 15.96C3.11 16.14 3 16.4 3 16.66V19C3 19.55 3.45 20 4 20H6.34C6.61 20 6.86 19.89 7.05 19.71L15.82 10.94L12.06 7.19ZM18.71 8.04C18.8027 7.94749 18.8763 7.8376 18.9264 7.71663C18.9766 7.59565 19.0024 7.46597 19.0024 7.335C19.0024 7.20403 18.9766 7.07435 18.9264 6.95338C18.8763 6.83241 18.8027 6.72252 18.71 6.63L16.37 4.29C16.2775 4.1973 16.1676 4.12375 16.0466 4.07357C15.9257 4.02339 15.796 3.99756 15.665 3.99756C15.534 3.99756 15.4043 4.02339 15.2834 4.07357C15.1624 4.12375 15.0525 4.1973 14.96 4.29L13.13 6.12L16.88 9.87L18.71 8.04Z" fill="#ADADAD"/>
</svg>
