<svg width="181" height="267" viewBox="0 0 181 267" fill="none" xmlns="http://www.w3.org/2000/svg">
<g clip-path="url(#clip0_16_421)">
<path d="M158.195 267H73.4028C60.828 267 50.5978 256.771 50.5978 244.198V22.8021C50.5978 10.2289 60.828 0 73.4028 0H158.195C170.77 0 181 10.2289 181 22.8021V244.198C181 256.771 170.77 267 158.195 267ZM73.4028 0.878015C61.311 0.878015 51.4759 10.7118 51.4759 22.8021V244.198C51.4759 256.288 61.311 266.122 73.4028 266.122H158.195C170.287 266.122 180.122 256.288 180.122 244.198V22.8021C180.122 10.7118 170.287 0.878015 158.195 0.878015H73.4028Z" fill="#DEDFE0"/>
<path d="M127.807 20.7914H103.795C100.625 20.7914 98.0475 18.2144 98.0475 15.0448C98.0475 11.8752 100.625 9.29819 103.795 9.29819H127.807C130.977 9.29819 133.555 11.8752 133.555 15.0448C133.555 18.2144 130.977 20.7914 127.807 20.7914Z" fill="#DADBDC"/>
<path d="M94.434 266.539C94.434 266.776 94.2408 266.969 94.0037 266.969H0.430283C0.193188 266.969 0 266.776 0 266.539C0 266.302 0.193188 266.109 0.430283 266.109H94.0037C94.2408 266.109 94.434 266.302 94.434 266.539Z" fill="#3F3D58"/>
<path d="M52.319 133.507L60.9466 136.343V123.927H53.1181L52.319 133.507Z" fill="#F6AAAE"/>
<path d="M59.8753 127.365C64.6232 127.365 68.4722 123.516 68.4722 118.769C68.4722 114.022 64.6232 110.173 59.8753 110.173C55.1273 110.173 51.2784 114.022 51.2784 118.769C51.2784 123.516 55.1273 127.365 59.8753 127.365Z" fill="#F6AAAE"/>
<path d="M57.6887 119.441L58.8742 120.881L61.0168 117.132C61.0168 117.132 63.7522 117.272 63.7522 115.244C63.7522 113.216 66.2636 113.159 66.2636 113.159C66.2636 113.159 69.8157 106.955 62.457 108.589C62.457 108.589 57.3506 105.09 54.8128 108.079C54.8128 108.079 47.0282 112 49.2543 118.826L52.9556 125.859L53.7942 124.265C53.7942 124.265 53.2849 117.579 57.6887 119.441Z" fill="#2F2E43"/>
<path d="M56.8896 251.152H49.9436V261.003H56.8896V251.152Z" fill="#F6AAAE"/>
<path d="M56.1256 266.649C54.9358 266.759 48.9952 267.224 48.6967 265.863C48.4244 264.612 48.824 263.304 48.8811 263.128C49.4518 257.447 49.6626 257.381 49.7899 257.342C49.9919 257.285 50.5846 257.561 51.5418 258.18L51.6033 258.22L51.6164 258.29C51.634 258.378 52.0599 260.463 54.0708 260.147C55.4495 259.928 55.8973 259.625 56.0422 259.475C55.9237 259.423 55.7788 259.331 55.6778 259.168C55.5285 258.935 55.5022 258.637 55.5987 258.281C55.8578 257.337 56.6349 255.941 56.6657 255.884L56.7535 255.726L64.6479 261.051L69.5215 262.443C69.8903 262.548 70.1845 262.812 70.3338 263.163C70.5401 263.655 70.4128 264.225 70.0176 264.581C69.1307 265.376 67.3745 266.741 65.526 266.908C65.0343 266.952 64.3844 266.969 63.6556 266.969C60.6041 266.969 56.1564 266.653 56.1212 266.649L56.1256 266.649Z" fill="#2F2E43"/>
<path d="M35.2248 236.357L28.9445 243.948L34.2965 248.375L40.5768 240.784L35.2248 236.357Z" fill="#F6AAAE"/>
<path d="M30.1154 252.245C29.1319 251.569 24.2539 248.145 24.8906 246.907C25.4789 245.77 26.6205 245.019 26.7786 244.918C30.8399 240.905 31.0463 240.989 31.1692 241.041C31.3624 241.125 31.639 241.718 31.9859 242.802L32.0078 242.868L31.9727 242.929C31.9288 243.008 30.9277 244.887 32.6796 245.923C33.8826 246.634 34.4227 246.683 34.6246 246.661C34.5676 246.547 34.5149 246.38 34.5368 246.191C34.5676 245.919 34.7388 245.669 35.0461 245.458C35.8496 244.896 37.3337 244.317 37.3995 244.29L37.5664 244.224L40.2535 253.36L43.1205 257.539C43.3357 257.856 43.3972 258.246 43.2874 258.615C43.1337 259.124 42.6727 259.484 42.137 259.506C40.9472 259.554 38.7255 259.484 37.1932 258.435C36.7892 258.158 36.2755 257.759 35.7135 257.294C33.3645 255.349 30.1374 252.271 30.1111 252.245L30.1154 252.245Z" fill="#2F2E43"/>
<path d="M68.3799 175.173H44.5563L49.8514 253.913H57.7941L68.3843 175.173L68.3799 175.173Z" fill="#2F2E43"/>
<path d="M63.5282 179.51L68.3799 175.173L65.9519 218.477L38.8177 244.281L32.0561 238.693L47.8624 218.182L63.5282 179.51Z" fill="#2F2E43"/>
<path d="M63.5282 128.853L51.7613 126.943L48.1083 133.331C43.463 141.453 41.5706 150.856 42.7078 160.141L44.5563 175.177H68.3799L63.5282 128.857L63.5282 128.853Z" fill="#DADBDC"/>
<path d="M53.9742 189.348C54.4616 191.776 53.5527 193.993 51.9501 194.3C50.3431 194.603 48.6483 192.882 48.161 190.45C47.9546 189.48 47.9897 188.479 48.2664 187.526L46.3345 177.205L51.3837 176.42L52.7492 186.679C53.3727 187.465 53.7942 188.378 53.9742 189.353V189.348Z" fill="#F6AAAE"/>
<path d="M47.8317 186.552L40.4159 163.644V163.609L43.2171 140.021C43.6474 136.408 46.7121 133.687 50.3475 133.687C52.5736 133.687 54.6372 134.692 56.0071 136.448C57.377 138.204 57.8555 140.447 57.3155 142.612L52.3672 162.398L53.5483 184.853L47.8273 186.552L47.8317 186.552Z" fill="#DADBDC"/>
<path d="M90.2585 136.22C92.3177 147.217 102.904 154.465 113.907 152.401C117.235 151.778 120.22 150.373 122.705 148.411L147.732 175.401C149.264 177.052 151.877 177.047 153.405 175.388C154.832 173.838 154.753 171.432 153.225 169.979L126.486 144.499C129.7 140.136 131.166 134.503 130.09 128.757C128.031 117.759 117.445 110.511 106.442 112.575C95.4395 114.638 88.1949 125.218 90.2585 136.22ZM94.5789 135.412C92.9675 126.799 98.6402 118.51 107.255 116.899C115.869 115.288 124.159 120.96 125.77 129.573C127.381 138.186 121.709 146.475 113.094 148.086C104.48 149.697 96.1902 144.025 94.5789 135.412Z" fill="#6D0077"/>
</g>
<defs>
<clipPath id="clip0_16_421">
<rect width="181" height="267" fill="white"/>
</clipPath>
</defs>
</svg>
