<svg width="49" height="43" viewBox="0 0 49 43" fill="none" xmlns="http://www.w3.org/2000/svg">
<path d="M10.766 37.044C10.1575 37.044 9.64693 36.8387 9.2344 36.428C8.82187 36.0136 8.6156 35.5012 8.6156 34.8908V32.0908H41.5156L43.2908 33.8688V8.4H46.0908C46.7012 8.4 47.2127 8.60627 47.6252 9.0188C48.0377 9.43133 48.2449 9.9428 48.2468 10.5532V40.2192C48.2468 41.216 47.782 41.9085 46.8524 42.2968C45.9247 42.6832 45.1071 42.5236 44.3996 41.818L39.6284 37.0468L10.766 37.044ZM8.6156 26.4908L3.8444 31.2648C3.13507 31.9704 2.31747 32.1291 1.3916 31.7408C0.463867 31.3544 0 30.6619 0 29.6632V2.156C0 1.5456 0.205333 1.03413 0.616 0.6216C1.03227 0.2072 1.5456 0 2.156 0H35.5404C36.1508 0 36.6623 0.206267 37.0748 0.6188C37.4873 1.03133 37.6936 1.5428 37.6936 2.1532V24.3376C37.6936 24.948 37.4873 25.4604 37.0748 25.8748C36.6623 26.2855 36.1508 26.4908 35.5404 26.4908H8.6156Z" fill="white"/>
</svg>
