<svg width="27" height="27" viewBox="0 0 27 27" fill="none" xmlns="http://www.w3.org/2000/svg">
<path d="M13.2706 13.2678C12.9999 13.2678 12.7403 13.3753 12.5489 13.5667C12.3575 13.7581 12.25 14.0177 12.25 14.2884V14.2966C12.25 14.86 12.7072 15.3172 13.2706 15.3172H13.2787C13.5494 15.3172 13.809 15.2097 14.0004 15.0183C14.1918 14.8269 14.2993 14.5673 14.2993 14.2966V14.2884C14.2993 14.0177 14.1918 13.7581 14.0004 13.5667C13.809 13.3753 13.5494 13.2678 13.2787 13.2678H13.2706ZM13.2706 19.3928C12.9999 19.3928 12.7403 19.5003 12.5489 19.6917C12.3575 19.8831 12.25 20.1427 12.25 20.4134V20.4202C12.25 20.9836 12.7058 21.4408 13.2706 21.4408H13.2774C13.5481 21.4408 13.8077 21.3333 13.9991 21.1419C14.1905 20.9505 14.298 20.6909 14.298 20.4202V20.4134C14.298 20.1427 14.1905 19.8831 13.9991 19.6917C13.8077 19.5003 13.5481 19.3928 13.2774 19.3928H13.2706ZM9.18682 20.4134C9.18682 20.1427 9.29434 19.8831 9.48574 19.6917C9.67714 19.5003 9.93674 19.3928 10.2074 19.3928H10.2156C10.4863 19.3928 10.7459 19.5003 10.9373 19.6917C11.1287 19.8831 11.2362 20.1427 11.2362 20.4134V20.4215C11.2362 20.6922 11.1287 20.9518 10.9373 21.1432C10.7459 21.3346 10.4863 21.4421 10.2156 21.4421H10.2074C9.93674 21.4421 9.67714 21.3346 9.48574 21.1432C9.29434 20.9518 9.18682 20.6922 9.18682 20.4215V20.4134ZM7.14562 19.3928C6.87494 19.3928 6.61534 19.5003 6.42394 19.6917C6.23254 19.8831 6.12502 20.1427 6.12502 20.4134V20.4202C6.12502 20.9836 6.58225 21.4408 7.14562 21.4408H7.15242C7.4231 21.4408 7.6827 21.3333 7.8741 21.1419C8.06549 20.9505 8.17302 20.6909 8.17302 20.4202V20.4134C8.17302 20.1427 8.06549 19.8831 7.8741 19.6917C7.6827 19.5003 7.4231 19.3928 7.15242 19.3928H7.14562ZM15.3104 17.3557C15.3104 17.085 15.4179 16.8254 15.6093 16.634C15.8007 16.4426 16.0603 16.3351 16.331 16.3351H16.3392C16.6099 16.3351 16.8695 16.4426 17.0609 16.634C17.2523 16.8254 17.3598 17.085 17.3598 17.3557V17.3625C17.3598 17.6331 17.2523 17.8927 17.0609 18.0841C16.8695 18.2755 16.6099 18.3831 16.3392 18.3831H16.331C16.0603 18.3831 15.8007 18.2755 15.6093 18.0841C15.4179 17.8927 15.3104 17.6331 15.3104 17.3625V17.3557ZM16.3324 19.3928C16.0617 19.3928 15.8021 19.5003 15.6107 19.6917C15.4193 19.8831 15.3118 20.1427 15.3118 20.4134V20.4215C15.3118 20.9849 15.7676 21.4421 16.3324 21.4421H16.3392C16.6099 21.4421 16.8695 21.3346 17.0609 21.1432C17.2523 20.9518 17.3598 20.6922 17.3598 20.4215V20.4134C17.3598 20.1427 17.2523 19.8831 17.0609 19.6917C16.8695 19.5003 16.6099 19.3928 16.3392 19.3928H16.3324ZM18.3736 17.3529C18.3736 17.0823 18.4811 16.8227 18.6725 16.6313C18.8639 16.4399 19.1235 16.3323 19.3942 16.3323H19.401C19.6717 16.3323 19.9313 16.4399 20.1227 16.6313C20.3141 16.8227 20.4216 17.0823 20.4216 17.3529V17.3611C20.4216 17.6318 20.3141 17.8914 20.1227 18.0828C19.9313 18.2742 19.6717 18.3817 19.401 18.3817H19.3942C19.1235 18.3817 18.8639 18.2742 18.6725 18.0828C18.4811 17.8914 18.3736 17.6318 18.3736 17.3611V17.3529ZM15.3091 14.2884C15.3091 14.0177 15.4166 13.7581 15.608 13.5667C15.7994 13.3753 16.059 13.2678 16.3297 13.2678H19.3915C19.5255 13.2678 19.6582 13.2942 19.782 13.3455C19.9058 13.3968 20.0184 13.472 20.1131 13.5667C20.2079 13.6615 20.2831 13.774 20.3344 13.8979C20.3857 14.0217 20.4121 14.1544 20.4121 14.2884C20.4121 14.4224 20.3857 14.5552 20.3344 14.679C20.2831 14.8028 20.2079 14.9153 20.1131 15.0101C20.0184 15.1049 19.9058 15.18 19.782 15.2313C19.6582 15.2826 19.5255 15.309 19.3915 15.309H16.3297C16.059 15.309 15.7994 15.2015 15.608 15.0101C15.4166 14.8187 15.3091 14.5591 15.3091 14.2884ZM6.12366 17.3502C6.12366 17.0795 6.23118 16.8199 6.42258 16.6285C6.61398 16.4371 6.87358 16.3296 7.14426 16.3296H13.2679C13.5385 16.3296 13.7981 16.4371 13.9895 16.6285C14.1809 16.8199 14.2885 17.0795 14.2885 17.3502C14.2885 17.6209 14.1809 17.8805 13.9895 18.0719C13.7981 18.2633 13.5385 18.3708 13.2679 18.3708H7.14426C6.87358 18.3708 6.61398 18.2633 6.42258 18.0719C6.23118 17.8805 6.12366 17.6209 6.12366 17.3502Z" fill="#6D0077"/>
<path fill-rule="evenodd" clip-rule="evenodd" d="M21.4353 1.0206C21.4353 0.74992 21.3278 0.490326 21.1364 0.298927C20.945 0.107527 20.6854 0 20.4147 0C20.144 0 19.8844 0.107527 19.693 0.298927C19.5016 0.490326 19.3941 0.74992 19.3941 1.0206V3.0618H7.14692V1.02196C7.14692 0.751281 7.03939 0.491687 6.84799 0.300288C6.6566 0.108888 6.397 0.0013607 6.12632 0.0013607C5.85564 0.0013607 5.59605 0.108888 5.40465 0.300288C5.21325 0.491687 5.10572 0.751281 5.10572 1.02196V3.05908H4.0824C2.99968 3.05908 1.96131 3.48919 1.19571 4.25479C0.430109 5.02038 0 6.05876 0 7.14148V22.4532C0 23.5359 0.430109 24.5743 1.19571 25.3399C1.96131 26.1055 2.99968 26.5356 4.0824 26.5356H22.4532C23.5359 26.5356 24.5743 26.1055 25.3399 25.3399C26.1055 24.5743 26.5356 23.5359 26.5356 22.4532V7.14284C26.5356 6.06012 26.1055 5.02174 25.3399 4.25615C24.5743 3.49055 23.5359 3.06044 22.4532 3.06044H21.4353V1.0206ZM2.0412 22.4532V12.2472C2.0412 11.7058 2.25625 11.1867 2.63905 10.8039C3.02185 10.4211 3.54104 10.206 4.0824 10.206H22.4532C22.9946 10.206 23.5137 10.4211 23.8965 10.8039C24.2793 11.1867 24.4944 11.7058 24.4944 12.2472V22.4532C24.4944 22.9946 24.2793 23.5137 23.8965 23.8965C23.5137 24.2793 22.9946 24.4944 22.4532 24.4944H4.0824C3.54104 24.4944 3.02185 24.2793 2.63905 23.8965C2.25625 23.5137 2.0412 22.9946 2.0412 22.4532Z" fill="#6D0077"/>
</svg>
