<svg width="18" height="18" viewBox="0 0 18 18" fill="none" xmlns="http://www.w3.org/2000/svg">
<path fill-rule="evenodd" clip-rule="evenodd" d="M13.6656 7.22219C13.3934 6.53245 12.9824 5.90596 12.4582 5.38157C11.9339 4.85718 11.3075 4.44607 10.6178 4.17371C10.455 4.35858 10.3249 4.56995 10.2334 4.79867C10.8782 5.03309 11.4638 5.40599 11.9489 5.89113C12.434 6.37628 12.8069 6.96186 13.0414 7.60667C13.2701 7.51509 13.4814 7.38506 13.6663 7.22219M8.80487 4.52219L8.63999 4.52003C7.70739 4.52003 6.79604 4.79867 6.02289 5.3202C5.24973 5.84172 4.65002 6.58235 4.3007 7.44707C3.95137 8.31178 3.86837 9.26115 4.06233 10.1734C4.25629 11.0856 4.71837 11.919 5.38929 12.5668C6.06021 13.2146 6.90937 13.6472 7.82783 13.809C8.74629 13.9709 9.69216 13.8546 10.5441 13.4752C11.396 13.0957 12.1152 12.4704 12.6092 11.6794C13.1033 10.8885 13.3498 9.96791 13.3171 9.03587C13.5648 8.95811 13.799 8.85611 14.0198 8.72987C14.0328 8.88491 14.0395 9.04163 14.04 9.20003C14.0399 10.2881 13.7112 11.3508 13.0968 12.2488C12.4824 13.1468 11.6111 13.8383 10.597 14.2326C9.58294 14.6269 8.47338 14.7057 7.41375 14.4586C6.35411 14.2115 5.39383 13.6501 4.65874 12.8479C3.92365 12.0457 3.44804 11.0402 3.29422 9.96306C3.14041 8.88592 3.31557 7.78745 3.79676 6.81157C4.27795 5.8357 5.04271 5.02795 5.99084 4.49416C6.93896 3.96038 8.02623 3.72546 9.11015 3.82019C8.98344 4.04288 8.88086 4.27845 8.80415 4.52291" fill="#ADADAD"/>
<path d="M12.2398 7.76C13.4328 7.76 14.3998 6.79294 14.3998 5.6C14.3998 4.40707 13.4328 3.44 12.2398 3.44C11.0469 3.44 10.0798 4.40707 10.0798 5.6C10.0798 6.79294 11.0469 7.76 12.2398 7.76Z" fill="#ADADAD"/>
</svg>
