<svg width="12" height="13" viewBox="0 0 12 13" fill="none" xmlns="http://www.w3.org/2000/svg">
<path d="M6 9.22894C6.26522 9.22894 6.51957 9.3343 6.70711 9.52184C6.89464 9.70937 7 9.96373 7 10.2289C7 10.4942 6.89464 10.7485 6.70711 10.936C6.51957 11.1236 6.26522 11.2289 6 11.2289C5.73478 11.2289 5.48043 11.1236 5.29289 10.936C5.10536 10.7485 5 10.4942 5 10.2289C5 9.96373 5.10536 9.70937 5.29289 9.52184C5.48043 9.3343 5.73478 9.22894 6 9.22894ZM6 2.22894C6.26522 2.22894 6.51957 2.3343 6.70711 2.52184C6.89464 2.70937 7 2.96373 7 3.22894C7 3.49416 6.89464 3.74851 6.70711 3.93605C6.51957 4.12359 6.26522 4.22894 6 4.22894C5.73478 4.22894 5.48043 4.12359 5.29289 3.93605C5.10536 3.74851 5 3.49416 5 3.22894C5 2.96373 5.10536 2.70937 5.29289 2.52184C5.48043 2.3343 5.73478 2.22894 6 2.22894Z" fill="black"/>
<path opacity="0.5" d="M6 5.72894C6.26522 5.72894 6.51957 5.8343 6.70711 6.02184C6.89464 6.20937 7 6.46373 7 6.72894C7 6.99416 6.89464 7.24851 6.70711 7.43605C6.51957 7.62359 6.26522 7.72894 6 7.72894C5.73478 7.72894 5.48043 7.62359 5.29289 7.43605C5.10536 7.24851 5 6.99416 5 6.72894C5 6.46373 5.10536 6.20937 5.29289 6.02184C5.48043 5.8343 5.73478 5.72894 6 5.72894Z" fill="black"/>
</svg>
