<svg width="30" height="30" viewBox="0 0 30 30" fill="none" xmlns="http://www.w3.org/2000/svg">
<path d="M14.118 22.056C14.118 22.2899 14.211 22.5143 14.3764 22.6797C14.5418 22.8451 14.7661 22.938 15 22.938C15.234 22.938 15.4583 22.8451 15.6237 22.6797C15.7891 22.5143 15.882 22.2899 15.882 22.056V18.528C15.882 18.2941 15.7891 18.0697 15.6237 17.9043C15.4583 17.7389 15.234 17.646 15 17.646C14.7661 17.646 14.5418 17.7389 14.3764 17.9043C14.211 18.0697 14.118 18.2941 14.118 18.528V22.056Z" fill="#6D0077"/>
<path fill-rule="evenodd" clip-rule="evenodd" d="M15 2.35797C14.1674 2.35797 13.4113 2.5967 12.5892 2.99536C11.7966 3.38109 10.8793 3.95027 9.73508 4.66058L7.30429 6.16939C6.22237 6.84206 5.3533 7.38067 4.68534 7.89223C3.99267 8.42143 3.46112 8.96239 3.07657 9.66446C2.69319 10.3642 2.5215 11.1098 2.438 11.9906C2.35803 12.8432 2.35803 13.8875 2.35803 15.1964V17.0932C2.35803 19.3324 2.35803 21.0999 2.53796 22.4817C2.72142 23.8988 3.1095 25.043 3.98444 25.9474C4.86291 26.8564 5.98011 27.2633 7.36544 27.455C8.70608 27.642 10.4207 27.642 12.5798 27.642H17.4202C19.5794 27.642 21.294 27.642 22.6346 27.455C24.0188 27.2633 25.1371 26.8564 26.0168 25.9474C26.8906 25.043 27.2786 23.8988 27.4633 22.4817C27.642 21.0999 27.642 19.3324 27.642 17.0932V15.1964C27.642 13.8875 27.642 12.8444 27.5621 11.9906C27.4797 11.1086 27.3069 10.3642 26.9235 9.66446C26.5389 8.96239 26.0062 8.4226 25.3147 7.89223C24.6468 7.37949 23.7789 6.84206 22.6958 6.16939L20.265 4.66058C19.1207 3.95027 18.2035 3.38109 17.4097 2.99536C16.59 2.59552 15.8338 2.35797 15 2.35797ZM10.6253 6.18468C11.819 5.4438 12.6598 4.924 13.3619 4.58179C14.0451 4.24898 14.5296 4.12197 15 4.12197C15.4704 4.12197 15.9549 4.24898 16.6382 4.58179C17.3414 4.92283 18.1811 5.4438 19.3748 6.18468L21.7267 7.64409C22.8569 8.34616 23.6507 8.83891 24.2434 9.29284C24.8185 9.73384 25.1489 10.0972 25.3759 10.5112C25.6028 10.9263 25.7357 11.412 25.8051 12.1552C25.8769 12.9173 25.878 13.8781 25.878 15.2399V17.0286C25.878 19.3453 25.8757 20.9987 25.7134 22.2535C25.5535 23.486 25.2512 24.201 24.7491 24.722C24.2493 25.2382 23.5695 25.5452 22.3924 25.7086C21.1858 25.8756 19.5947 25.878 17.352 25.878H12.648C10.4042 25.878 8.81427 25.8756 7.6077 25.7086C6.43052 25.544 5.75079 25.2382 5.25217 24.7208C4.74884 24.201 4.44661 23.486 4.28785 22.2535C4.12321 20.9987 4.12203 19.3465 4.12203 17.0286V15.2399C4.12203 13.8781 4.12203 12.9173 4.19494 12.1552C4.26433 11.412 4.39722 10.9263 4.62418 10.5112C4.85115 10.0972 5.18161 9.73384 5.75785 9.29284C6.34938 8.83891 7.14318 8.34616 8.27331 7.64409L10.6253 6.18468Z" fill="#6D0077"/>
</svg>
