<svg width="30" height="30" viewBox="0 0 30 30" fill="none" xmlns="http://www.w3.org/2000/svg">
<path d="M15 3C16.8122 3.00105 18.6006 3.41251 20.231 4.20351C21.8614 4.9945 23.2915 6.14449 24.414 7.56718C25.5364 8.98986 26.3221 10.6483 26.712 12.418C27.1019 14.1877 27.0859 16.0228 26.6653 17.7855C26.2447 19.5481 25.4303 21.1926 24.2832 22.5956C23.1362 23.9985 21.6863 25.1235 20.0424 25.886C18.3984 26.6485 16.6032 27.0288 14.7912 26.9983C12.9793 26.9678 11.1979 26.5274 9.5805 25.71L9.399 25.6125L3.9315 26.9775C3.82628 27.004 3.71657 27.0073 3.60994 26.9872C3.50331 26.9672 3.4023 26.9242 3.31389 26.8613C3.22547 26.7984 3.15176 26.7171 3.09782 26.623C3.04389 26.5288 3.01103 26.4241 3.0015 26.316V26.193L3.0225 26.0685L4.3875 20.6025L4.293 20.4225C3.60828 19.0706 3.18583 17.6012 3.048 16.092L3.0105 15.519L3 15C3 11.8174 4.26428 8.76516 6.51472 6.51472C8.76516 4.26428 11.8174 3 15 3ZM15 4.5C13.1677 4.4997 11.3672 4.9789 9.77746 5.88996C8.18771 6.80103 6.86404 8.11224 5.93799 9.69331C5.01195 11.2744 4.51577 13.0703 4.49875 14.9025C4.48173 16.7347 4.94448 18.5395 5.841 20.1375C5.9106 20.2618 5.94338 20.4033 5.9355 20.5455L5.9145 20.6865L4.7805 25.218L9.3165 24.087C9.4087 24.0642 9.5044 24.0591 9.5985 24.072L9.735 24.1035L9.8655 24.162C11.2655 24.9458 12.8265 25.3983 14.4287 25.4847C16.0308 25.5712 17.6315 25.2894 19.1077 24.6609C20.584 24.0324 21.8965 23.0739 22.9446 21.8591C23.9928 20.6443 24.7485 19.2054 25.1539 17.653C25.5593 16.1006 25.6035 14.4759 25.2832 12.9037C24.9629 11.3316 24.2865 9.85371 23.3061 8.58366C22.3256 7.31361 21.0671 6.28514 19.6273 5.57724C18.1874 4.86934 16.6045 4.50082 15 4.5ZM15.75 16.5C15.9374 16.4997 16.1182 16.5695 16.2567 16.6958C16.3952 16.822 16.4814 16.9956 16.4983 17.1822C16.5152 17.3689 16.4617 17.5551 16.3482 17.7042C16.2347 17.8534 16.0694 17.9546 15.885 17.988L15.75 18H11.25C11.0626 18.0003 10.8818 17.9305 10.7433 17.8042C10.6048 17.678 10.5186 17.5044 10.5017 17.3178C10.4848 17.1311 10.5383 16.9449 10.6518 16.7958C10.7653 16.6466 10.9306 16.5454 11.115 16.512L11.25 16.5H15.75ZM18.75 12C18.9374 11.9997 19.1182 12.0695 19.2567 12.1958C19.3952 12.322 19.4814 12.4956 19.4983 12.6822C19.5152 12.8689 19.4617 13.0551 19.3482 13.2042C19.2347 13.3534 19.0694 13.4546 18.885 13.488L18.75 13.5H11.25C11.0626 13.5003 10.8818 13.4305 10.7433 13.3042C10.6048 13.178 10.5186 13.0044 10.5017 12.8178C10.4848 12.6311 10.5383 12.4449 10.6518 12.2958C10.7653 12.1466 10.9306 12.0454 11.115 12.012L11.25 12H18.75Z" fill="#6D0077"/>
</svg>
